<?xml version="1.0" encoding="UTF-8"?>
<svg version="1.1" xmlns="http://www.w3.org/2000/svg" width="512" height="512">
<path d="M0 0 C1.0573661 -0.0098568 1.0573661 -0.0098568 2.13609314 -0.01991272 C4.47118258 -0.03962239 6.80620698 -0.05131793 9.14135742 -0.0612793 C9.94745642 -0.06535482 10.75355541 -0.06943035 11.58408165 -0.07362938 C15.87050492 -0.09450393 20.15689628 -0.10878628 24.44335938 -0.11816406 C27.94516881 -0.12693649 31.44657003 -0.14759688 34.94824219 -0.1796875 C71.33631867 -0.50591572 109.42393066 1.36488369 137.07495117 28.2590332 C153.5139571 45.67057574 155.73506139 65.96259307 155.11791992 88.81225586 C154.43368235 101.3523651 150.75713414 115.05251617 144.33666992 125.8684082 C142.37460722 130.49756448 142.32284002 134.8845439 142.05932617 139.86450195 C140.37879039 162.97141178 133.08572549 184.35493714 117.93432617 202.17700195 C117.22663086 203.04583008 116.51893555 203.9146582 115.78979492 204.80981445 C110.20283309 211.39336947 103.14555759 218.59920866 95.04248047 221.9621582 C92.79587897 222.85015503 92.79587897 222.85015503 89.93432617 225.17700195 C88.92345828 228.58944227 88.95469344 231.88785254 88.99682617 235.42700195 C88.98071289 236.36286133 88.96459961 237.2987207 88.94799805 238.26293945 C88.91269946 240.5691138 88.90923139 242.87082355 88.93432617 245.17700195 C90.23241211 245.14348633 91.53049805 245.1099707 92.86791992 245.07543945 C97.7408597 245.08115104 102.24645949 245.76401049 106.99682617 246.80200195 C107.81973145 246.98093994 108.64263672 247.15987793 109.49047852 247.34423828 C129.74893657 251.97256783 152.2531879 261.59214757 166.02807617 277.70043945 C171.74553763 284.75367148 171.74553763 284.75367148 179.86401367 287.9309082 C183.47603237 287.99305229 187.04774433 287.64250365 190.64135742 287.30932617 C218.21123351 285.71830479 246.30056314 298.67462719 266.50952148 316.57202148 C289.02380804 337.11719019 301.64351355 365.35454533 303.21948242 395.7199707 C304.16356925 426.57137965 293.27733051 455.11957236 272.33276367 477.70825195 C252.86447445 497.74727278 226.77172966 511.89490706 198.32104492 512.4152832 C184.13417299 512.62003457 170.54689995 512.64068294 156.93432617 508.17700195 C156.2155127 507.94142578 155.49669922 507.70584961 154.75610352 507.46313477 C142.84841823 503.44930827 142.84841823 503.44930827 137.82735348 500.11178207 C133.33942429 497.53655265 129.16968736 497.61434915 124.09510803 497.65802002 C123.12132515 497.65051877 122.14754227 497.64301752 121.14425081 497.63528895 C117.89054542 497.61503513 114.63753841 497.62311019 111.38378906 497.63110352 C109.04780387 497.62236729 106.71182466 497.61188134 104.37585449 497.59977722 C98.03964666 497.57190301 91.70363395 497.56851287 85.3673737 497.56949711 C79.41483103 497.56668623 73.46237705 497.545563 67.50987511 497.5245305 C55.72290135 497.48347775 43.93596217 497.46014378 32.14892578 497.44799805 C20.70162636 497.43616434 9.25439201 497.41595757 -2.19287109 497.38452148 C-2.89894998 497.38258538 -3.60502887 497.38064928 -4.33250409 497.37865451 C-7.87483492 497.36888972 -11.41716528 497.35896065 -14.95949543 497.34894991 C-44.32818458 497.26616543 -73.6968895 497.21245194 -103.06567383 497.17700195 C-103.11255619 479.57349046 -103.14774178 461.96999866 -103.16929817 444.36643887 C-103.17957667 436.19137411 -103.19357084 428.01634832 -103.21655273 419.84130859 C-103.23659222 412.70948685 -103.24941511 405.57769335 -103.25385082 398.44584423 C-103.25644047 394.67545862 -103.26245431 390.90515376 -103.27713394 387.13479424 C-103.29088546 383.57337159 -103.29486171 380.01206161 -103.29188919 376.45061493 C-103.29268684 374.54622954 -103.30335525 372.64185592 -103.31451416 370.73750305 C-103.22811067 333.86220292 -88.38772987 302.57502561 -62.66723633 276.77075195 C-42.12319455 257.38700489 -13.44626027 244.79063258 14.93432617 245.17700195 C15.31362244 238.54401158 15.69163752 231.64159841 13.93432617 225.17700195 C11.28300082 222.31229939 8.987138 221.30440669 5.40698242 219.7980957 C1.24855394 217.85687206 -1.58977669 215.38702939 -4.87817383 212.23950195 C-5.42916748 211.71348389 -5.98016113 211.18746582 -6.54785156 210.64550781 C-8.06926065 209.17065601 -9.57162769 207.67951295 -11.06567383 206.17700195 C-11.75661133 205.48606445 -12.44754883 204.79512695 -13.15942383 204.08325195 C-29.71783995 186.32058739 -38.95094032 159.82903272 -39.08520508 135.66137695 C-39.20298307 126.2819661 -42.23425805 120.31806383 -46.76879883 112.38012695 C-52.44098707 102.34044629 -55.23620697 91.82595995 -55.37817383 80.36450195 C-55.40717773 79.59557617 -55.43618164 78.82665039 -55.46606445 78.03442383 C-55.54178351 71.13234078 -53.65874798 66.02938352 -48.99536133 60.8996582 C-48.31731445 60.35180664 -47.63926758 59.80395508 -46.94067383 59.23950195 C-46.2574707 58.67360352 -45.57426758 58.10770508 -44.87036133 57.5246582 C-43.06567383 56.17700195 -43.06567383 56.17700195 -41.06567383 55.17700195 C-41.11208008 53.9446582 -41.15848633 52.71231445 -41.20629883 51.44262695 C-41.60352842 36.46161318 -39.46715367 23.51380279 -29.06567383 11.9543457 C-20.80547735 4.062908 -11.33238807 0.08771163 0 0 Z " fill="#52C1FE" transform="translate(156.065673828125,-0.177001953125)"/>
<path d="M0 0 C1.0573661 -0.0098568 1.0573661 -0.0098568 2.13609314 -0.01991272 C4.47118258 -0.03962239 6.80620698 -0.05131793 9.14135742 -0.0612793 C9.94745642 -0.06535482 10.75355541 -0.06943035 11.58408165 -0.07362938 C15.87050492 -0.09450393 20.15689628 -0.10878628 24.44335938 -0.11816406 C27.94516881 -0.12693649 31.44657003 -0.14759688 34.94824219 -0.1796875 C71.33631867 -0.50591572 109.42393066 1.36488369 137.07495117 28.2590332 C153.5139571 45.67057574 155.73506139 65.96259307 155.11791992 88.81225586 C154.43368235 101.3523651 150.75713414 115.05251617 144.33666992 125.8684082 C142.37460722 130.49756448 142.32284002 134.8845439 142.05932617 139.86450195 C140.37879039 162.97141178 133.08572549 184.35493714 117.93432617 202.17700195 C117.22663086 203.04583008 116.51893555 203.9146582 115.78979492 204.80981445 C109.61700502 212.08369661 102.19634498 218.98366787 93.30639648 222.68920898 C91.00654194 224.00692731 90.10818908 224.64425772 89.27700806 227.19113159 C89.01120048 229.80995904 88.96608365 232.35721515 88.98901367 234.98950195 C88.96638458 235.9542041 88.94375549 236.91890625 88.92044067 237.9128418 C88.85088477 241.00133559 88.82618598 244.0878031 88.80932617 247.17700195 C88.53705607 277.38942994 88.53705607 277.38942994 78.10229492 288.4230957 C67.57131526 296.94275312 56.36088914 298.11021805 43.38208008 297.44213867 C34.9321425 296.52685519 28.15735857 291.34944796 22.55151367 285.25512695 C20.10680024 282.11361115 18.35852694 278.88556434 16.93432617 275.17700195 C16.41467285 273.93672241 16.41467285 273.93672241 15.88452148 272.67138672 C14.63816534 268.08785756 14.80674083 263.93161686 14.94213867 259.2121582 C14.96081089 257.25840891 14.97633935 255.30462749 14.98901367 253.35083008 C15.01555639 250.28981532 15.059503 247.2339517 15.15698242 244.17431641 C16.03738162 232.48942256 16.03738162 232.48942256 11.42675781 222.44775391 C8.3263888 220.68993709 5.26417178 219.432069 1.93432617 218.17700195 C-0.5547869 216.40690789 -2.70089891 214.37613345 -4.87817383 212.23950195 C-5.4223999 211.71864014 -5.96662598 211.19777832 -6.52734375 210.66113281 C-8.05697347 209.18230007 -9.56551888 207.68565636 -11.06567383 206.17700195 C-11.75661133 205.48606445 -12.44754883 204.79512695 -13.15942383 204.08325195 C-29.71783995 186.32058739 -38.95094032 159.82903272 -39.08520508 135.66137695 C-39.20298307 126.2819661 -42.23425805 120.31806383 -46.76879883 112.38012695 C-52.44098707 102.34044629 -55.23620697 91.82595995 -55.37817383 80.36450195 C-55.42167969 79.21111328 -55.42167969 79.21111328 -55.46606445 78.03442383 C-55.54178351 71.13234078 -53.65874798 66.02938352 -48.99536133 60.8996582 C-48.31731445 60.35180664 -47.63926758 59.80395508 -46.94067383 59.23950195 C-46.2574707 58.67360352 -45.57426758 58.10770508 -44.87036133 57.5246582 C-43.06567383 56.17700195 -43.06567383 56.17700195 -41.06567383 55.17700195 C-41.11208008 53.9446582 -41.15848633 52.71231445 -41.20629883 51.44262695 C-41.60352842 36.46161318 -39.46715367 23.51380279 -29.06567383 11.9543457 C-20.80547735 4.062908 -11.33238807 0.08771163 0 0 Z " fill="#FBDDC9" transform="translate(156.065673828125,-0.177001953125)"/>
<path d="M0 0 C20.82596144 21.10128425 31.90213265 49.72096475 32.1875 79.25 C31.87565974 111.5183797 18.8869885 139.11336138 -3.7109375 161.78125 C-28.70116594 185.52563128 -58.94796328 192.26413179 -92.57373047 191.42919922 C-100.08519165 191.05672168 -107.05330929 189.56279939 -114.1875 187.25 C-114.88504395 187.03037598 -115.58258789 186.81075195 -116.30126953 186.58447266 C-125.3756129 183.65906833 -133.42539089 179.85341604 -141.1875 174.25 C-142.16203125 173.5590625 -143.1365625 172.868125 -144.140625 172.15625 C-169.44851445 153.72691512 -187.37486783 127.96027136 -192.52734375 96.69140625 C-196.5006345 67.64841557 -190.11764062 38.53653712 -173.21484375 14.4375 C-171.27567693 11.97017045 -169.26358095 9.60289174 -167.1875 7.25 C-166.50042969 6.43144531 -165.81335938 5.61289062 -165.10546875 4.76953125 C-155.61368322 -6.26146274 -144.92608337 -14.02902963 -132.1875 -20.75 C-131.43597656 -21.15992188 -130.68445313 -21.56984375 -129.91015625 -21.9921875 C-86.89022417 -44.68982038 -33.89815424 -33.07667755 0 0 Z " fill="#67C7A5" transform="translate(427.1875,320.75)"/>
<path d="M0 0 C1.0573661 -0.0098568 1.0573661 -0.0098568 2.13609314 -0.01991272 C4.47118258 -0.03962239 6.80620698 -0.05131793 9.14135742 -0.0612793 C9.94745642 -0.06535482 10.75355541 -0.06943035 11.58408165 -0.07362938 C15.87050492 -0.09450393 20.15689628 -0.10878628 24.44335938 -0.11816406 C27.94516881 -0.12693649 31.44657003 -0.14759688 34.94824219 -0.1796875 C71.33631867 -0.50591572 109.42393066 1.36488369 137.07495117 28.2590332 C153.5139571 45.67057574 155.73506139 65.96259307 155.11791992 88.81225586 C154.3413642 103.04429166 149.36672845 116.57322241 142.93432617 129.17700195 C99.76953051 129.973074 60.73205893 116.39704065 27.23510742 89.0402832 C23.87551496 86.31952666 20.41321189 83.74243723 16.93432617 81.17700195 C16.51022461 82.08321289 16.08612305 82.98942383 15.64916992 83.9230957 C12.09301946 91.36929784 8.35208542 97.89093366 2.93432617 104.17700195 C2.41483398 104.83958008 1.8953418 105.5021582 1.36010742 106.18481445 C-7.42130668 117.02869143 -20.04628261 124.74466642 -33.16723633 129.23950195 C-36.06567383 129.17700195 -36.06567383 129.17700195 -38.69067383 126.67700195 C-41.09527279 123.34282959 -43.15892343 119.81563322 -45.06567383 116.17700195 C-45.40671143 115.5319873 -45.74774902 114.88697266 -46.09912109 114.22241211 C-51.68223656 103.3781571 -55.22678947 92.58626559 -55.37817383 80.36450195 C-55.42167969 79.21111328 -55.42167969 79.21111328 -55.46606445 78.03442383 C-55.54178351 71.13234078 -53.65874798 66.02938352 -48.99536133 60.8996582 C-48.31731445 60.35180664 -47.63926758 59.80395508 -46.94067383 59.23950195 C-46.2574707 58.67360352 -45.57426758 58.10770508 -44.87036133 57.5246582 C-43.06567383 56.17700195 -43.06567383 56.17700195 -41.06567383 55.17700195 C-41.11208008 53.9446582 -41.15848633 52.71231445 -41.20629883 51.44262695 C-41.60352842 36.46161318 -39.46715367 23.51380279 -29.06567383 11.9543457 C-20.80547735 4.062908 -11.33238807 0.08771163 0 0 Z " fill="#738394" transform="translate(156.065673828125,-0.177001953125)"/>
<path d="M0 0 C22.11 0 44.22 0 67 0 C67 34.32 67 68.64 67 104 C44.89 104 22.78 104 0 104 C0 69.68 0 35.36 0 0 Z " fill="#F6C6A6" transform="translate(53,393)"/>
<path d="M0 0 C3.85544798 1.99657127 5.59805092 3.39707638 8 7 C8.24050903 9.18302917 8.24050903 9.18302917 8.22705078 11.74682617 C8.22689972 12.70759567 8.22674866 13.66836517 8.22659302 14.6582489 C8.21627045 15.69270645 8.20594788 16.727164 8.1953125 17.79296875 C8.1924826 18.85413406 8.18965271 19.91529938 8.18673706 21.00862122 C8.17553184 24.40169497 8.15042647 27.79450587 8.125 31.1875 C8.11497065 33.48632432 8.10584472 35.78515276 8.09765625 38.08398438 C8.07559141 43.72274611 8.04211044 49.36135428 8 55 C8.57771652 54.99333817 9.15543304 54.98667633 9.75065613 54.97981262 C15.76901682 54.91339002 21.78727319 54.86817065 27.8059082 54.83520508 C30.05139394 54.82012818 32.29685029 54.79966347 34.54223633 54.77368164 C37.77172099 54.73725082 41.00081594 54.72026245 44.23046875 54.70703125 C45.23272995 54.69154739 46.23499115 54.67606354 47.2676239 54.66011047 C53.89387355 54.65851419 57.29582285 55.58816633 62.3125 60.0625 C64.78404606 64.36482092 65.02374112 68.15981223 64 73 C61.97456933 76.42717689 59.58498296 79.20750852 56 81 C54.45772144 81.08991092 52.91159105 81.11756961 51.36669922 81.11352539 C50.40585419 81.11344986 49.44500916 81.11337433 48.45504761 81.11329651 C47.41542877 81.10813522 46.37580994 81.10297394 45.3046875 81.09765625 C44.24210724 81.0962413 43.17952698 81.09482635 42.08474731 81.09336853 C38.68146991 81.08775834 35.27825762 81.07520409 31.875 81.0625 C29.57161553 81.05748631 27.26823003 81.05292318 24.96484375 81.04882812 C19.30987351 81.0377856 13.65494141 81.02103752 8 81 C8.00999275 81.84445175 8.00999275 81.84445175 8.02018738 82.70596313 C8.08668604 88.57849401 8.1318608 94.45091747 8.16479492 100.32373047 C8.17985806 102.51387885 8.20031259 104.70399719 8.22631836 106.89404297 C8.26280989 110.04662503 8.27975139 113.19880737 8.29296875 116.3515625 C8.30845261 117.32678864 8.32393646 118.30201477 8.33988953 119.30679321 C8.34120196 124.63835619 8.02072696 128.40182808 5 133 C1.25183477 136.40742294 -2.68445522 136.56715484 -7.55859375 136.421875 C-11.61626006 135.72071026 -13.24739574 134.02786468 -16 131 C-17.82123344 128.00265164 -18.24621839 125.81174725 -18.22705078 122.32324219 C-18.22689972 121.40258972 -18.22674866 120.48193726 -18.22659302 119.53338623 C-18.21627045 118.54783752 -18.20594788 117.56228882 -18.1953125 116.546875 C-18.1924826 115.53151672 -18.18965271 114.51615845 -18.18673706 113.47003174 C-18.17555001 110.22990084 -18.15044791 106.99004724 -18.125 103.75 C-18.1149683 101.55208733 -18.10584278 99.35417032 -18.09765625 97.15625 C-18.07561551 91.77073886 -18.04215251 86.38538924 -18 81 C-18.86324387 81.01332367 -18.86324387 81.01332367 -19.743927 81.0269165 C-25.74617559 81.11556901 -31.74823748 81.17580837 -37.75097656 81.21972656 C-39.98966021 81.23981316 -42.22829158 81.2670878 -44.46679688 81.30175781 C-47.68893349 81.35040464 -50.91037501 81.37299874 -54.1328125 81.390625 C-55.12991241 81.41127014 -56.12701233 81.43191528 -57.15432739 81.45318604 C-63.100167 81.45509602 -66.48563026 80.98363971 -71 77 C-73.910372 72.634442 -74.6506249 69.20499921 -74 64 C-71.5127258 59.02545159 -69.14910067 56.9712127 -64 55 C-60.44484622 54.60428964 -56.92485643 54.65029736 -53.3515625 54.70703125 C-52.33903412 54.71127609 -51.32650574 54.71552094 -50.28329468 54.71989441 C-47.06358752 54.73662698 -43.84451656 54.77426974 -40.625 54.8125 C-38.43620698 54.82755382 -36.24740411 54.841241 -34.05859375 54.85351562 C-28.70551374 54.88651268 -23.35280234 54.93665804 -18 55 C-18.00888245 54.43703217 -18.01776489 53.87406433 -18.0269165 53.29403687 C-18.1155807 47.42155129 -18.1758131 41.54925664 -18.21972656 35.67626953 C-18.23981107 33.48608676 -18.26708417 31.29595741 -18.30175781 29.10595703 C-18.35041409 25.95331624 -18.37300078 22.80138596 -18.390625 19.6484375 C-18.41127014 18.67321136 -18.43191528 17.69798523 -18.45318604 16.69320679 C-18.45512721 10.77889359 -17.88098193 7.53383628 -14 3 C-9.80908295 -0.98052965 -5.5096044 -0.79950095 0 0 Z " fill="#FEFEFE" transform="translate(351,332)"/>
<path d="M0 0 C0.60867416 0.20301224 1.21734833 0.40602448 1.84446716 0.6151886 C2.6478804 0.88308701 3.45129364 1.15098541 4.27905273 1.42700195 C5.0733519 1.69188919 5.86765106 1.95677643 6.6860199 2.22969055 C23.87400253 7.95146206 43.59464974 10.37041151 61 4 C62.52560547 3.46052734 62.52560547 3.46052734 64.08203125 2.91015625 C66.00242911 2.2174325 67.91636843 1.50627483 69.8203125 0.76953125 C72 0 72 0 74 0 C74.06704903 6.66765326 74.05471391 13.33226819 74 20 C73.99129883 21.58772217 73.99129883 21.58772217 73.98242188 23.20751953 C73.75867626 48.14396783 73.75867626 48.14396783 68 57 C67.27490234 58.12341797 67.27490234 58.12341797 66.53515625 59.26953125 C61.44488785 65.97773338 53.84368557 69.38543814 46 72 C32.92887952 73.37379324 22.16422572 72.56922798 11.640625 64.1015625 C7.19129589 59.99324036 4.16788489 55.64508641 2 50 C1.65775391 49.17822266 1.31550781 48.35644531 0.96289062 47.50976562 C-0.30982916 42.87066329 -0.24835526 38.57548573 -0.1953125 33.7890625 C-0.1924826 32.82092621 -0.18965271 31.85278992 -0.18673706 30.85531616 C-0.17558696 27.77841572 -0.1504918 24.70181172 -0.125 21.625 C-0.11496352 19.5325563 -0.10583884 17.44010802 -0.09765625 15.34765625 C-0.07566453 10.23165749 -0.04117025 5.11587892 0 0 Z " fill="#F8C7A5" transform="translate(171,225)"/>
</svg>
