<?xml version="1.0" encoding="UTF-8"?>
<svg version="1.1" xmlns="http://www.w3.org/2000/svg" width="512" height="512">
<path d="M0 0 C1.19367188 -0.01675781 2.38734375 -0.03351562 3.6171875 -0.05078125 C9.96570516 0.6066933 14.06990363 3.5104122 18.125 8.3125 C22.9081332 15.64488551 22.6016268 22.23554723 22.375 30.8125 C22.35695313 32.111875 22.33890625 33.41125 22.3203125 34.75 C22.27342615 37.93827151 22.20780893 41.124993 22.125 44.3125 C22.72940918 44.3542334 23.33381836 44.3959668 23.95654297 44.43896484 C30.29696035 44.96275438 36.15214556 46.14857397 42.25 47.9375 C43.16088379 48.20328857 44.07176758 48.46907715 45.01025391 48.74291992 C83.77155896 60.41477952 115.08667372 88.05384533 134.24707031 123.38134766 C144.24606123 142.67891709 150.25076315 164.83230674 150.28271484 186.62011719 C150.28779556 187.39724564 150.29287628 188.17437408 150.29811096 188.97505188 C150.30873111 190.64784407 150.31738331 192.32064972 150.32423019 193.99346161 C150.33617845 196.66321278 150.35567417 199.3328134 150.37734985 202.00250244 C150.43839911 209.58869208 150.49263843 217.17486602 150.52636719 224.76123047 C150.72137208 266.26283291 153.6989585 305.68693525 181.125 339.3125 C181.59019043 339.89290039 182.05538086 340.47330078 182.53466797 341.07128906 C187.78365954 347.57772366 193.23152179 353.58857826 199.5 359.125 C207.855028 366.5233352 213.42501481 374.53488673 214.44140625 385.828125 C214.80196924 397.31961652 212.64032914 406.35183121 205.16796875 415.2421875 C197.7271914 422.7825546 188.9245838 427.2769262 178.23995972 427.67326355 C176.52179759 427.68180135 174.80350086 427.67434959 173.08544922 427.65307617 C171.6641143 427.65373329 171.6641143 427.65373329 170.21406555 427.65440369 C167.11905446 427.65233348 164.02460256 427.6290866 160.9296875 427.60546875 C158.76921891 427.5998665 156.60874648 427.59559938 154.44827271 427.59260559 C148.789686 427.58120637 143.13133398 427.55178185 137.47283936 427.51849365 C131.68765436 427.48768624 125.90243106 427.47407752 120.1171875 427.45898438 C108.78635579 427.4269072 97.45569749 427.37577086 86.125 427.3125 C86.13016632 427.99109573 86.13533264 428.66969147 86.14065552 429.36885071 C86.14668289 430.71054573 86.14668289 430.71054573 86.15283203 432.0793457 C86.15799835 432.96419144 86.16316467 433.84903717 86.16848755 434.76069641 C85.79056542 456.93676937 73.36914245 476.04099362 58.234375 491.20703125 C42.46806774 505.8802962 22.09669165 512.94666329 0.8125 512.75 C-0.36739502 512.74097656 -1.54729004 512.73195313 -2.76293945 512.72265625 C-26.95729709 512.24444782 -47.49285824 501.67420153 -64.23828125 484.35546875 C-76.51421764 470.64217427 -84.98473889 452.04899273 -84.90283203 433.58618164 C-84.89881378 432.41229385 -84.89479553 431.23840607 -84.89065552 430.02894592 C-84.88290604 428.68430519 -84.88290604 428.68430519 -84.875 427.3125 C-86.07832474 427.32138245 -87.28164948 427.33026489 -88.5214386 427.3394165 C-99.89353914 427.42070598 -111.26558029 427.48056302 -122.63790607 427.51974869 C-128.48374407 427.5405721 -134.32934642 427.56879386 -140.17504883 427.61425781 C-145.82256048 427.65790263 -151.46984629 427.68167652 -157.11751366 427.69200897 C-159.26596821 427.69936695 -161.41441122 427.71373497 -163.56276894 427.73542023 C-178.1876346 427.87709378 -190.53054881 427.70950252 -201.875 417.3125 C-210.00338465 409.29727152 -213.0924627 400.98766698 -213.1875 389.6875 C-213.20733318 378.64482483 -210.38520862 370.57198697 -202.875 362.3125 C-201.00899247 360.56542482 -199.08425802 358.9126565 -197.1328125 357.26171875 C-170.32690817 334.1195972 -153.44733261 299.79543762 -150.56600952 264.53074646 C-150.48149136 263.18019019 -150.40158025 261.82933967 -150.32568359 260.47827148 C-150.26263314 259.3741059 -150.26263314 259.3741059 -150.19830894 258.24763393 C-149.80393046 250.82954942 -149.70985056 243.41759995 -149.67576981 235.99037361 C-149.66364492 233.57704087 -149.64412638 231.16386197 -149.62265015 228.75059509 C-149.56209908 221.90287556 -149.50715417 215.05518592 -149.47363281 208.20727539 C-149.45240982 203.97941066 -149.41691817 199.75185383 -149.37287521 195.52416801 C-149.35895919 193.93978989 -149.35004976 192.35535765 -149.34682083 190.77092171 C-149.30810673 173.60875477 -146.72261958 157.48199452 -140.875 141.3125 C-140.63297852 140.63364746 -140.39095703 139.95479492 -140.14160156 139.25537109 C-126.92933714 102.90889077 -98.73267137 72.80927491 -63.875 56.3125 C-50.7275576 50.47085798 -35.49391942 44.07489566 -20.875 44.3125 C-20.90118408 43.44560547 -20.92736816 42.57871094 -20.9543457 41.68554688 C-21.04011891 38.43528504 -21.10251444 35.18560445 -21.1496582 31.93457031 C-21.17463412 30.53398531 -21.20862817 29.13352839 -21.25219727 27.73339844 C-21.71083766 12.60366126 -21.71083766 12.60366126 -15.875 6.3125 C-10.73818103 1.55154583 -7.01294988 0.02262242 0 0 Z " fill="#FFC106" transform="translate(255.875,-0.3125)"/>
<path d="M0 0 C56.43 0 112.86 0 171 0 C171 25.91657704 161.33583129 45.63041699 143.109375 63.89453125 C127.34306774 78.5677962 106.97169165 85.63416329 85.6875 85.4375 C84.50760498 85.42847656 83.32770996 85.41945313 82.11206055 85.41015625 C57.91770291 84.93194782 37.38214176 74.36170153 20.63671875 57.04296875 C6.20669134 40.92336623 0 21.35069615 0 0 Z " fill="#FFA000" transform="translate(171,427)"/>
<path d="M0 0 C1.19367188 -0.01675781 2.38734375 -0.03351562 3.6171875 -0.05078125 C9.96570516 0.6066933 14.06990363 3.5104122 18.125 8.3125 C22.90681813 15.64286955 22.59954229 22.24809941 22.375 30.8125 C22.2925 35.2675 22.21 39.7225 22.125 44.3125 C7.935 44.3125 -6.255 44.3125 -20.875 44.3125 C-20.978125 39.5275 -21.08125 34.7425 -21.1875 29.8125 C-21.25578003 27.57243164 -21.25578003 27.57243164 -21.32543945 25.28710938 C-21.40458454 17.6932662 -21.19582042 12.04846136 -15.875 6.3125 C-10.73818103 1.55154583 -7.01294988 0.02262242 0 0 Z " fill="#FFA000" transform="translate(255.875,-0.3125)"/>
</svg>
