<?xml version="1.0" encoding="UTF-8"?>
<svg version="1.1" xmlns="http://www.w3.org/2000/svg" width="512" height="512">
<path d="M0 0 C1.767854 -0.00202539 3.53570718 -0.00494069 5.30355835 -0.00869751 C8.97963542 -0.01308742 12.65549179 -0.00679064 16.33154297 0.00732422 C21.04486636 0.02454109 25.75768186 0.01447571 30.47098732 -0.00339317 C34.10834616 -0.0142142 37.7455836 -0.01079462 41.38294601 -0.0030098 C43.12210526 -0.00100964 44.86127555 -0.00346059 46.60042191 -0.01044846 C49.01988473 -0.01804916 51.43850996 -0.00648469 53.85791016 0.01025391 C54.57475983 0.00418121 55.2916095 -0.00189148 56.03018188 -0.00814819 C58.85565471 0.02815116 60.85512113 0.07679685 63.24081421 1.67269897 C64.3359375 3.3984375 64.3359375 3.3984375 65.3359375 7.3984375 C73.2559375 7.3984375 81.1759375 7.3984375 89.3359375 7.3984375 C89.9959375 5.4184375 90.6559375 3.4384375 91.3359375 1.3984375 C93.8404919 0.1461603 95.53473886 0.26964111 98.33860207 0.26421642 C99.40356962 0.25975858 100.46853717 0.25530074 101.56577647 0.25070781 C102.74512401 0.25089217 103.92447154 0.25107653 105.13955688 0.25126648 C106.38518823 0.24758979 107.63081958 0.2439131 108.91419733 0.240125 C112.3831169 0.23008902 115.85201918 0.22638563 119.32095122 0.22373569 C123.05798948 0.21983728 126.79501397 0.21025851 130.53204346 0.20152283 C139.56358205 0.18174361 148.59512178 0.17168962 157.62667662 0.16279504 C161.87841113 0.15841386 166.13014438 0.15304655 170.3818779 0.14780617 C184.51392928 0.13079119 198.64597988 0.11629724 212.77803993 0.10905743 C216.44691595 0.10714748 220.11579197 0.10522716 223.78466797 0.10327148 C224.6965666 0.10278774 225.60846524 0.102304 226.54799716 0.1018056 C241.31851724 0.09350622 256.0889563 0.06817208 270.859441 0.03569081 C286.01979095 0.00262376 301.18009973 -0.01539108 316.34048593 -0.01858681 C324.85413341 -0.02075242 333.36766282 -0.02950822 341.88127518 -0.05504799 C349.13252576 -0.0767503 356.38362961 -0.08480781 363.63490899 -0.07508121 C367.33416546 -0.07053488 371.03311915 -0.07244161 374.73233414 -0.09184265 C378.74524143 -0.11270686 382.75747656 -0.10249418 386.77041626 -0.08930969 C387.93637947 -0.10027894 389.10234267 -0.11124818 390.3036381 -0.12254983 C398.1348737 -0.0603639 403.33136392 1.15225219 409.54296875 6.1875 C414.8025675 12.20212631 416.86451208 17.99846696 417.7109375 25.8984375 C416.8241274 34.17533176 414.42749171 41.49767022 408.3359375 47.3984375 C403.69089093 50.48618522 398.93246891 52.48901418 393.3125 52.29296875 C389.69728677 52.20448451 386.81055451 52.36860083 383.3359375 53.3984375 C380.10967298 56.93930908 378.81695745 60.89472154 377.3359375 65.3984375 C376.92730469 66.43355469 376.51867187 67.46867187 376.09765625 68.53515625 C370.76470765 83.72764555 371.29991784 102.60384006 378.05859375 117.19140625 C380.63980867 123.1826792 380.63980867 123.1826792 384.3359375 128.3984375 C386.50097451 128.53226534 388.6682832 128.62988205 390.8359375 128.7109375 C399.9714384 129.35023726 405.47818673 131.0676983 411.7734375 137.8359375 C417.34209617 144.30458141 417.95892518 150.24452853 417.70703125 158.59765625 C416.97956495 166.04844267 413.92743234 171.19741947 408.5859375 176.3359375 C400.42161092 182.785452 391.43763879 182.98172436 381.3359375 183.3984375 C381.97660156 183.96691406 382.61726563 184.53539062 383.27734375 185.12109375 C385.97763679 187.53163851 388.65722255 189.96395832 391.3359375 192.3984375 C391.965 192.94757813 392.5940625 193.49671875 393.2421875 194.0625 C408.32060719 207.93180113 416.79681403 229.81424094 417.71875 249.92578125 C418.04512675 262.62957394 417.60545458 274.35979919 413.3359375 286.3984375 C412.97371094 287.44515625 412.61148437 288.491875 412.23828125 289.5703125 C405.90506945 306.14400574 394.97115941 319.30272683 381.3359375 330.3984375 C382.31433594 330.43582031 383.29273438 330.47320312 384.30078125 330.51171875 C394.26741267 331.01152033 403.20562383 331.49427676 410.83203125 338.58984375 C416.18469076 345.02693817 417.87185119 353.22575372 417.3359375 361.3984375 C415.83781824 369.80989609 412.32237416 375.46177698 405.62890625 380.74609375 C401.02700921 383.54332528 397.03828941 383.49737413 391.7109375 383.5234375 C386.47700163 383.65197692 386.47700163 383.65197692 382.17578125 386.25390625 C380.52173712 388.91475985 379.39855402 391.45103401 378.3359375 394.3984375 C377.94148438 395.44 377.54703125 396.4815625 377.140625 397.5546875 C371.47267932 413.56762496 371.06117823 431.5037003 377.3359375 447.3984375 C377.71363281 448.54699219 378.09132813 449.69554687 378.48046875 450.87890625 C379.78995073 454.25349273 380.90368842 456.71263349 383.3359375 459.3984375 C386.71009645 460.37774485 389.57093904 460.46190844 393.078125 460.41796875 C399.36366536 460.38028565 405.29669347 462.44656066 409.98828125 466.74609375 C415.59012937 473.61444666 417.9096781 481.64889328 417.3359375 490.3984375 C416.01875997 497.7939664 413.24401591 503.60923412 407.3359375 508.3984375 C399.60541356 513.59455874 391.58688127 512.96147863 382.63285828 512.9131012 C380.91532238 512.91842905 379.19779115 512.92549611 377.48026878 512.93414825 C372.76906697 512.95277271 368.05817956 512.9464711 363.34696472 512.93599522 C358.26214034 512.92900216 353.17738047 512.94500252 348.09257507 512.95799255 C338.13167153 512.97964058 328.17088221 512.9795028 318.20996287 512.97136701 C310.10818824 512.96506499 302.0064469 512.96620594 293.90467262 512.97263908 C292.75114128 512.97354074 291.59760994 512.97444239 290.4091231 512.97537137 C288.06553825 512.97722262 285.72195342 512.97908518 283.37836859 512.98095893 C261.39487495 512.99754211 239.41144546 512.98881586 217.42795566 512.97197335 C197.34327938 512.95729651 177.25875298 512.97187548 157.17409601 513.00074352 C136.53405818 513.03018777 115.89408939 513.04109384 95.25403148 513.03156132 C92.91574626 513.03053881 90.57746104 513.0295442 88.2391758 513.0285778 C87.08881114 513.02810141 85.93844648 513.02762502 84.75322228 513.0271342 C76.67284884 513.02497558 68.59254112 513.03474541 60.51218224 513.04934883 C50.64718399 513.06692894 40.78237631 513.06667457 30.91738536 513.04399718 C25.89017281 513.03290285 20.86329526 513.02958219 15.83609772 513.04829788 C11.22086393 513.06525745 6.60625324 513.05854509 1.99105868 513.03408109 C0.3341766 513.02924737 -1.32275727 513.03257552 -2.97959546 513.04556853 C-25.4765857 513.20905506 -44.99081735 506.50331678 -62.6640625 492.3984375 C-63.38207031 491.83382813 -64.10007812 491.26921875 -64.83984375 490.6875 C-81.26028943 477.10476241 -91.0150692 457.10042149 -94.6640625 436.3984375 C-95.07413913 431.78433307 -95.14196055 427.21632408 -95.1015625 422.5859375 C-95.09398926 421.36052246 -95.08641602 420.13510742 -95.07861328 418.87255859 C-94.90774431 409.44982098 -93.88896884 401.27193754 -90.6640625 392.3984375 C-90.22835937 391.19445312 -89.79265625 389.99046875 -89.34375 388.75 C-83.02431315 372.83054433 -72.14775434 357.86056283 -57.6640625 348.3984375 C-58.7984375 348.36105469 -59.9328125 348.32367188 -61.1015625 348.28515625 C-72.08622368 347.84416176 -80.50478713 347.34206241 -88.8984375 339.39453125 C-94.55473438 332.99991244 -95.38020317 326.20843406 -95.109375 317.83984375 C-94.21701739 310.94364155 -91.38619206 305.66686524 -86.2890625 300.9609375 C-78.02014831 294.75045514 -70.60494135 295.05300156 -60.6640625 295.3984375 C-60.38433594 294.67785156 -60.10460938 293.95726562 -59.81640625 293.21484375 C-58.71734821 290.52867139 -57.49094969 287.9474288 -56.2265625 285.3359375 C-49.07269996 269.3561558 -48.24888248 251.48395419 -53.375 234.72265625 C-55.05016511 230.40276077 -57.09886634 226.43585391 -59.4921875 222.47265625 C-60.6640625 220.3984375 -60.6640625 220.3984375 -60.6640625 218.3984375 C-61.57027344 218.44484375 -62.47648437 218.49125 -63.41015625 218.5390625 C-73.13235837 218.82712775 -78.87665484 217.52866559 -86.9140625 212.2734375 C-92.82565921 206.09313185 -94.97912147 200.34001673 -95.2265625 191.7734375 C-94.88852782 183.15788684 -93.10403666 178.44990841 -86.8515625 172.5859375 C-80.51679916 167.0871017 -74.32790796 165.93942025 -66.2265625 165.7109375 C-65.39962891 165.67677734 -64.57269531 165.64261719 -63.72070312 165.60742188 C-61.70227306 165.52575129 -59.68319366 165.46040026 -57.6640625 165.3984375 C-58.80681641 164.38136719 -58.80681641 164.38136719 -59.97265625 163.34375 C-73.43118714 151.26653547 -83.5486093 139.14772476 -90.0390625 122.1484375 C-90.27778076 121.52372559 -90.51649902 120.89901367 -90.76245117 120.25537109 C-98.38328956 99.11546859 -96.80332253 74.02351648 -88.0546875 53.515625 C-84.43915064 45.83675544 -79.94037078 39.02818758 -74.6640625 32.3984375 C-73.86935547 31.35623047 -73.86935547 31.35623047 -73.05859375 30.29296875 C-55.0653173 8.03461937 -27.50976903 -0.11203434 0 0 Z " fill="#030202" transform="translate(94.6640625,-0.3984375)"/>
<path d="M0 0 C1.41907866 -0.00256327 1.41907866 -0.00256327 2.86682558 -0.00517833 C6.02054831 -0.00845906 9.17405583 0.00250712 12.32775879 0.01345825 C14.59491979 0.01402267 16.86208116 0.0137052 19.12924194 0.01257324 C25.27323249 0.01199993 31.41714479 0.02375083 37.56111717 0.03772116 C43.98597186 0.05023206 50.41082837 0.0513993 56.83569336 0.05377197 C67.61594247 0.0592799 78.39615741 0.07176842 89.1763916 0.08963013 C100.27730161 0.10800397 111.37820382 0.1221531 122.47912598 0.13064575 C123.16403317 0.1311712 123.84894037 0.13169665 124.55460232 0.13223802 C127.99077359 0.1348482 131.42694491 0.13737559 134.86311626 0.13986182 C163.34418935 0.16057625 191.82522886 0.19633855 220.30627441 0.24050903 C220.30627441 7.17050903 220.30627441 14.10050903 220.30627441 21.24050903 C217.511884 21.24637527 214.71749359 21.25224152 211.83842468 21.25828552 C186.18455803 21.31351802 160.53076488 21.38350893 134.87698222 21.46949532 C131.51137231 21.48076282 128.14576198 21.49190138 124.78015137 21.50296021 C124.11014846 21.50516389 123.44014555 21.50736757 122.74983952 21.50963803 C111.91615117 21.54496358 101.08246288 21.56985444 90.24873837 21.59085605 C79.1236692 21.61265597 67.99867007 21.64596673 56.87366277 21.68921059 C50.62855859 21.71312378 44.38353658 21.73186511 38.13838768 21.73812294 C32.25575697 21.74418229 26.37333649 21.76421332 20.49078369 21.79478455 C18.33620477 21.80355106 16.18159836 21.80729024 14.02700233 21.8055172 C-1.10541036 21.62888864 -1.10541036 21.62888864 -15.69372559 25.24050903 C-16.81005371 25.67750122 -17.92638184 26.11449341 -19.07653809 26.56472778 C-34.64344694 34.30383204 -43.04067332 45.9354244 -48.69372559 62.24050903 C-52.17477447 76.01048088 -49.00764091 90.05942474 -42.48278809 102.35379028 C-34.15008205 115.79892076 -21.7543065 123.75346822 -6.63415623 127.79039288 C-2.31160768 128.45208131 1.96675577 128.38852613 6.33363342 128.38768005 C7.35188782 128.39135674 8.37014222 128.39503343 9.41925281 128.39882153 C12.83545587 128.40984572 16.2516285 128.41369999 19.66784668 128.41751099 C22.11526587 128.4237763 24.56268412 128.43042316 27.01010132 128.43742371 C34.35403523 128.45663387 41.69796106 128.46724625 49.0419127 128.4761515 C52.50068479 128.48053784 55.95945536 128.48590349 59.41822624 128.49114037 C70.91427702 128.50814347 82.41032686 128.52264021 93.90638828 128.52988911 C96.88693302 128.53179895 99.86747775 128.5337193 102.84802246 128.53567505 C103.58880879 128.53615879 104.32959512 128.53664253 105.09282952 128.53714093 C117.10789634 128.54545118 129.12286393 128.57080891 141.13788737 128.60325573 C153.47328234 128.63629651 165.8086268 128.65433488 178.14406627 128.65753335 C185.07023879 128.65970046 191.99626628 128.66847909 198.92239571 128.69399452 C205.432102 128.71792105 211.94159357 128.72154614 218.45135117 128.71123314 C220.84433167 128.71073548 223.23732466 128.71712299 225.63026619 128.73078918 C228.88912884 128.74836433 232.14703741 128.74147273 235.40589905 128.72825623 C236.35968321 128.73922547 237.31346737 128.75019472 238.29615408 128.76149637 C243.43787164 128.74645014 243.43787164 128.74645014 247.89770412 126.40143108 C249.80511147 123.47523093 249.81638381 121.66552925 249.30627441 118.24050903 C247.76220837 116.21103307 246.87818775 115.34995113 244.34974098 114.86610419 C243.60044004 114.86637387 242.85113911 114.86664356 242.07913208 114.86692142 C240.77929965 114.85643681 240.77929965 114.85643681 239.45320797 114.84574038 C238.50060369 114.85331643 237.5479994 114.86089249 236.56652832 114.86869812 C235.55492173 114.86487356 234.54331514 114.86104899 233.50105381 114.85710853 C230.09484319 114.84778708 226.68903518 114.85983825 223.28283691 114.87161255 C220.84706961 114.86914583 218.41130336 114.86530872 215.97554016 114.86019897 C210.72083875 114.85184457 205.46621586 114.8523787 200.21151733 114.86038399 C192.60208989 114.87161125 184.99278689 114.86257745 177.38337028 114.84782218 C165.02222458 114.82403385 152.66109423 114.81068284 140.29992676 114.80667114 C139.18980502 114.80630384 139.18980502 114.80630384 138.05725658 114.80592912 C129.80939065 114.80338586 121.56152589 114.80281493 113.31365967 114.80386353 C110.32763672 114.80419652 107.34161378 114.80448193 104.35559082 114.80471802 C103.61883653 114.80478081 102.88208223 114.80484359 102.12300205 114.80490828 C89.81811556 114.80551406 77.51329972 114.79059024 65.20844269 114.76388496 C57.62372978 114.74810968 50.03924552 114.7457905 42.4545303 114.76101898 C36.63280078 114.77163941 30.81124513 114.76175005 24.98953819 114.74446106 C22.60757192 114.7407409 20.22558348 114.74382524 17.84363747 114.75433159 C14.58272538 114.76775253 11.32276428 114.75644897 8.06188965 114.73930359 C7.12713114 114.74911037 6.19237263 114.75891714 5.2292881 114.76902109 C-6.21327362 114.64526877 -16.17781919 110.09957002 -24.63122559 102.49832153 C-32.66085725 94.15719554 -36.09315359 83.07272179 -35.96716309 71.72097778 C-35.17218886 61.6020916 -30.06062672 52.52626911 -22.88513184 45.45925903 C-10.51463906 35.3776932 2.23900503 35.53781995 17.41467285 35.67288208 C19.64301522 35.67429426 21.87135991 35.67349726 24.09970093 35.67066956 C30.11966581 35.66924064 36.13912803 35.69854586 42.15897655 35.73353934 C48.46099964 35.76489022 54.76303547 35.76774047 61.06512451 35.77366638 C71.63322433 35.78741894 82.20116033 35.81860582 92.76916504 35.86331177 C103.64871309 35.90928745 114.52821119 35.94463999 125.40783691 35.96585083 C126.07974523 35.96716445 126.75165355 35.96847806 127.44392273 35.96983149 C130.81507491 35.97635722 134.18622744 35.98267563 137.5573802 35.98889101 C165.47380583 36.04109103 193.39002718 36.12898349 221.30627441 36.24050903 C221.32814819 37.67100586 221.32814819 37.67100586 221.35046387 39.13040161 C221.40845234 42.66984488 221.48568399 46.20865227 221.56872559 49.74758911 C221.60197259 51.27905962 221.63000535 52.8106526 221.65270996 54.34231567 C221.6862616 56.5445879 221.73857352 58.74573815 221.79455566 60.94754028 C221.80414055 61.97425591 221.80414055 61.97425591 221.81391907 63.02171326 C221.90180135 65.86513328 222.00138051 67.80564592 223.65905762 70.16995239 C226.31008283 71.89290268 228.22274263 71.65574773 231.30627441 71.24050903 C233.97968602 69.73024341 233.97968602 69.73024341 236.43127441 67.49050903 C237.85246582 66.26654419 237.85246582 66.26654419 239.30236816 65.01785278 C243.00836943 61.649977 246.51255574 58.08339105 250.00891113 54.50027466 C253.84646964 50.59818747 257.81355064 47.35085626 262.30627441 44.24050903 C263.00752441 44.9533606 263.70877441 45.66621216 264.43127441 46.40066528 C269.2563387 51.28038517 274.08364836 56.05186014 279.34143066 60.47097778 C281.67578082 62.57328518 283.73948611 64.86918546 285.86877441 67.17800903 C288.90402379 70.25519622 289.82261759 71.14689804 294.18127441 71.99050903 C297.61511317 71.45423233 297.61511317 71.45423233 300.30627441 68.24050903 C300.63627441 57.68050903 300.96627441 47.12050903 301.30627441 36.24050903 C325.06627441 36.24050903 348.82627441 36.24050903 373.30627441 36.24050903 C371.82127441 40.69550903 371.82127441 40.69550903 370.30627441 45.24050903 C369.58691753 47.40354076 368.87740679 49.56989155 368.18127441 51.74050903 C367.84869629 52.76144653 367.51611816 53.78238403 367.17346191 54.83425903 C362.73027494 72.28677723 363.94818158 93.23846222 372.4005127 109.32278442 C373.30627441 111.24050903 373.30627441 111.24050903 373.30627441 114.24050903 C372.13307648 114.24637527 370.95987854 114.25224152 369.75112915 114.25828552 C358.71450707 114.31540798 347.67808401 114.38811418 336.64166451 114.47622395 C330.96721938 114.52102131 325.29284762 114.56025658 319.61828613 114.58694458 C314.1457519 114.61288434 308.67349858 114.65321992 303.20113754 114.7036953 C301.1095109 114.72042736 299.01783559 114.73190198 296.92615128 114.73812294 C294.00454245 114.74769536 291.08366269 114.77567136 288.16223145 114.80813599 C287.29045258 114.8067009 286.41867371 114.80526581 285.52047729 114.80378723 C282.87586574 114.81012732 282.87586574 114.81012732 279.30627441 115.24050903 C276.83683913 118.94466196 276.83714353 120.86195408 277.30627441 125.24050903 C280.20964188 128.12602773 282.35823553 128.6141236 286.37850952 128.60559082 C287.91354126 128.61355934 287.91354126 128.61355934 289.47958374 128.62168884 C290.59656647 128.61239853 291.71354919 128.60310822 292.86437988 128.59353638 C294.04526184 128.59569656 295.2261438 128.59785675 296.44281006 128.6000824 C299.6785248 128.60397864 302.91392966 128.59501284 306.14961004 128.58196211 C309.5394411 128.57272385 312.92918296 128.58428116 316.31900024 128.59490967 C327.13389415 128.62501654 337.94873645 128.62357955 348.76365101 128.60465682 C355.87002275 128.5923141 362.97606985 128.59421076 370.08240426 128.62304461 C373.45522969 128.63576891 376.82745109 128.63861316 380.20025253 128.61835861 C383.96370393 128.59934226 387.72594968 128.61069244 391.48937988 128.62869263 C393.15878128 128.60868446 393.15878128 128.60868446 394.86190796 128.58827209 C403.28978383 128.67797335 403.28978383 128.67797335 406.99942017 131.62249756 C410.19209803 135.24581589 410.05378193 137.23556898 409.77111816 141.86160278 C409.11769188 145.20560786 407.8378769 146.99823254 405.30627441 149.24050903 C401.86235262 150.38848297 399.21025269 150.36947189 395.57590866 150.37473011 C394.88470786 150.37708234 394.19350707 150.37943457 393.48136079 150.38185808 C391.147979 150.38855442 388.81465281 150.38808966 386.48126221 150.38768005 C384.79819442 150.39097832 383.11512742 150.39470381 381.43206143 150.39882153 C376.79315224 150.40885455 372.15425598 150.41256044 367.51533747 150.41521084 C362.51709599 150.41911024 357.5188648 150.42868907 352.52062988 150.43742371 C340.44012944 150.45720222 328.35962815 150.46725774 316.27911556 150.4761515 C310.58977572 150.4805336 304.90043682 150.48590075 299.21109772 150.49114037 C280.2957262 150.50815681 261.38035526 150.52264952 242.46497726 150.52988911 C237.55432891 150.53179901 232.64368056 150.53371934 227.73303223 150.53567505 C225.90225088 150.53640066 225.90225088 150.53640066 224.03448406 150.53714093 C204.27660785 150.54543563 184.51879229 150.57076125 164.76094255 150.60325573 C144.4736613 150.63634858 124.18641083 150.65434003 103.89910245 150.65753335 C92.50964936 150.65969677 81.12028462 150.66842057 69.73085785 150.69399452 C60.02742286 150.7157322 50.32409766 150.72373697 40.62064108 150.71402774 C35.67297508 150.70949146 30.72553546 150.71132999 25.7779007 150.73078918 C21.2398698 150.74848244 16.70222942 150.74737342 12.16419402 150.73189189 C10.53077923 150.72952509 8.89733696 150.73379071 7.26396403 150.74572054 C-12.47090114 150.88081993 -30.69451476 145.72919863 -45.69372559 132.24050903 C-47.03563965 131.05521606 -47.03563965 131.05521606 -48.40466309 129.84597778 C-61.88808042 117.23067088 -71.03846008 99.28893002 -71.94763184 80.73269653 C-72.62516013 59.68224039 -67.06468835 40.67564778 -52.95935059 24.62722778 C-39.07312366 9.99880597 -20.46783711 -0.13680246 0 0 Z " fill="#FDF5E6" transform="translate(86.6937255859375,346.7594909667969)"/>
<path d="M0 0 C1.31772093 -0.00199105 2.63544186 -0.0039821 3.99309373 -0.00603348 C5.45909915 -0.0031804 6.9251044 -0.0002348 8.39110947 0.00279331 C9.9454868 0.00235739 11.49986407 0.00148208 13.05424094 0.00020415 C17.33220465 -0.00203661 21.61014343 0.00197478 25.88810396 0.00698221 C30.49884701 0.0112925 35.1095886 0.00983987 39.7203331 0.00907993 C47.71098032 0.00855507 55.70161939 0.01169799 63.69226456 0.01731777 C75.24545882 0.0254378 86.79864914 0.02804851 98.35184595 0.02930576 C117.09522167 0.03149549 135.83859304 0.03815343 154.5819664 0.04760838 C172.7916016 0.05678454 191.00123561 0.06386438 209.21087265 0.06811619 C210.33293209 0.06837891 211.45499154 0.06864164 212.61105278 0.06891232 C218.23998103 0.07021734 223.86890928 0.07148105 229.49783754 0.07272422 C276.21045382 0.08309436 322.92306535 0.10071053 369.63567734 0.12304783 C369.43520294 0.72329273 369.23472855 1.32353764 369.02817917 1.94197178 C368.76225464 2.73882893 368.49633011 3.53568607 368.22234726 4.35669041 C367.95999786 5.14256031 367.69764847 5.92843021 367.42734909 6.73811436 C359.72608204 29.93839844 358.88076466 51.56382291 368.90130234 74.30273533 C369.63567734 76.12304783 369.63567734 76.12304783 369.63567734 78.12304783 C321.68500435 78.23752228 273.73434585 78.3256115 225.78356312 78.37837448 C220.12098639 78.38462792 214.45840992 78.39109954 208.79583359 78.39770603 C207.66852893 78.39901758 206.54122427 78.40032914 205.37975886 78.40168043 C187.13281959 78.42342981 168.88595918 78.46284881 150.63906667 78.50881181 C131.91244814 78.55558938 113.18587088 78.58334599 94.45919633 78.5934903 C82.90623314 78.60034674 71.35349286 78.62199279 59.80059829 78.66263016 C51.87554509 78.68908453 43.95060693 78.69704269 36.02551278 78.69055472 C31.4548719 78.68735604 26.88462023 78.69221757 22.31404877 78.7190752 C18.12385735 78.74351706 13.9343146 78.74456516 9.74409249 78.7275423 C8.23378164 78.72544035 6.72342929 78.73169039 5.21319935 78.74746374 C-6.69202234 78.86450608 -17.1338347 76.61421157 -26.55572891 68.89648533 C-34.88855398 60.72563742 -39.34370951 50.21556489 -39.86432266 38.56054783 C-39.31343233 26.35210733 -33.81992369 17.09848381 -25.11432266 8.87304783 C-17.87004321 2.97577726 -9.22435021 -0.00307069 0 0 Z " fill="#FEF6E7" transform="translate(90.36432266235352,50.876952171325684)"/>
<path d="M0 0 C48.11212214 -0.09155687 96.22423506 -0.16203942 144.33642714 -0.20426132 C150.01660261 -0.20926414 155.69677791 -0.21444143 161.37695312 -0.21972656 C162.50777302 -0.2207758 163.63859291 -0.22182505 164.80368008 -0.22290608 C183.11338729 -0.24031097 201.42304426 -0.27184914 219.73272167 -0.30861118 C238.52035299 -0.34601823 257.30795801 -0.36823536 276.09562504 -0.37635398 C287.68848107 -0.38184223 299.2811951 -0.39917603 310.87400742 -0.43166587 C318.82379976 -0.45281081 326.77351868 -0.45920007 334.7233371 -0.45400551 C339.30987686 -0.45144372 343.89616848 -0.45536891 348.48266411 -0.4768219 C352.68501265 -0.49633425 356.88694694 -0.49723976 361.08931483 -0.48359558 C362.60631476 -0.48191008 364.12334089 -0.48694464 365.64028953 -0.49953273 C378.72511984 -0.60176529 388.31046104 1.88699791 398 11 C406.03711553 19.77101695 409.4586346 29.65767484 409.33984375 41.41796875 C408.30682533 52.30622036 402.92135785 61.97224674 394.64453125 69 C386.28533296 75.22079873 378.49850033 77.4813547 368.15234375 77.29296875 C366.80638878 77.28660149 366.80638878 77.28660149 365.4332428 77.28010559 C362.60100757 77.26347363 359.76951576 77.22585197 356.9375 77.1875 C355.00326557 77.17243309 353.06901986 77.15874822 351.13476562 77.14648438 C346.42266863 77.11618799 341.71215456 77.05743936 337 77 C337 66.77 337 56.54 337 46 C346.75 45.75 346.75 45.75 349.80371094 45.70214844 C355.04708501 45.51927921 355.04708501 45.51927921 359.64453125 43.1796875 C361.32647192 40.91460182 361.32647192 40.91460182 360.9375 37.375 C360.3249155 33.74483076 360.3249155 33.74483076 357 32 C354.88362681 31.69958855 354.88362681 31.69958855 352.51625061 31.74552441 C351.13064139 31.73677612 351.13064139 31.73677612 349.71704006 31.72785109 C348.19240186 31.73352008 348.19240186 31.73352008 346.63696289 31.73930359 C345.01920629 31.73356527 345.01920629 31.73356527 343.36876774 31.72771102 C339.73668171 31.7173507 336.10475288 31.72137893 332.47265625 31.7253418 C329.87612765 31.72099704 327.27960034 31.71581469 324.68307495 31.70985413 C318.35177153 31.69708885 312.02051047 31.69531567 305.68919635 31.69765439 C300.54483743 31.6994355 295.40049141 31.69769236 290.25613403 31.69342995 C289.5247113 31.69283476 288.79328858 31.69223957 288.03970152 31.69162634 C286.55395531 31.69041463 285.06820911 31.6892005 283.58246291 31.68798397 C269.64181485 31.67710159 255.70119098 31.67927434 241.76054156 31.68536881 C228.9978053 31.69053983 216.23514532 31.67927893 203.47242415 31.66027059 C190.37659374 31.6409152 177.28079946 31.63263207 164.18495464 31.63639385 C156.8290169 31.63830924 149.47314412 31.6357855 142.11721802 31.62167931 C135.20290127 31.60855444 128.28874014 31.61099418 121.37442398 31.62409019 C118.83106562 31.62646713 116.28769664 31.62368168 113.74435043 31.61546707 C110.28373169 31.60509235 106.82363633 31.61302551 103.36303711 31.6257782 C101.83839891 31.61471677 101.83839891 31.61471677 100.28295994 31.60343188 C99.35922046 31.61063842 98.43548098 31.61784497 97.48374939 31.62526989 C96.28494345 31.62518737 96.28494345 31.62518737 95.06191921 31.62510318 C92.44358374 32.10116725 91.56235599 32.8694488 90 35 C89.43838887 39.57001825 89.43838887 39.57001825 91.11650562 43.69382954 C93.90555565 45.62798703 96.13784165 45.38568384 99.51091003 45.39872742 C100.17500879 45.40537424 100.83910755 45.41202107 101.52333051 45.41886932 C103.75293191 45.43755081 105.98199909 45.4348907 108.21166992 45.43237305 C109.80815899 45.44138711 111.40464111 45.45171345 113.00111389 45.46325684 C117.33965899 45.49089496 121.67807303 45.50012056 126.01669478 45.50611091 C130.54913157 45.5154769 135.08146976 45.54167879 139.61384583 45.56611633 C148.1985569 45.60983399 156.7832489 45.63834857 165.36803752 45.66143972 C175.14065002 45.68846321 184.91316359 45.73237643 194.68570554 45.77772844 C214.79043119 45.87065017 234.89514709 45.94006656 255 46 C255 56.23 255 66.46 255 77 C170.85 77 86.7 77 0 77 C3 68 3 68 4.5625 63.5625 C10.79102536 44.71877776 10.12340833 22.54710085 1.33203125 4.59375 C0.67267578 3.30984375 0.67267578 3.30984375 0 2 C0 1.34 0 0.68 0 0 Z " fill="#FEF6E7" transform="translate(52,218)"/>
<path d="M0 0 C8.58 0 17.16 0 26 0 C26.99 2.97 26.99 2.97 28 6 C30.48488463 7.24244231 32.13642985 7.12712463 34.91734028 7.13028526 C36.48621619 7.13572178 36.48621619 7.13572178 38.08678657 7.14126813 C39.24483478 7.14019988 40.40288298 7.13913163 41.59602356 7.13803101 C42.81927029 7.14085229 44.04251702 7.14367357 45.30283183 7.14658034 C48.70914688 7.15349547 52.11541427 7.15595381 55.52173293 7.15663147 C59.19122727 7.15846767 62.86070974 7.16607254 66.53019714 7.17311096 C72.89260015 7.18464857 79.25500049 7.19288662 85.61741066 7.19923019 C95.67103962 7.20954403 105.72463539 7.23010437 115.77824402 7.25234985 C119.21591271 7.25982996 122.65358154 7.26724364 126.09125042 7.27463722 C126.95041717 7.27648779 127.80958391 7.27833835 128.69478602 7.280245 C138.47987039 7.30118176 148.26495843 7.32000543 158.05004883 7.33789062 C159.39216164 7.3403479 159.39216164 7.3403479 160.76138785 7.34285481 C175.26229628 7.36914206 189.76320726 7.38778366 204.26412944 7.40448253 C219.14312021 7.42189386 234.02206088 7.45072921 248.90101165 7.4893719 C258.08327725 7.5127916 267.2654612 7.52676824 276.44775691 7.52869953 C282.7393628 7.53080646 289.03088744 7.54371507 295.32245687 7.56517886 C298.95444056 7.5772249 302.5862629 7.58434797 306.21826553 7.57846642 C310.15329491 7.57220812 314.08803277 7.58896245 318.02302551 7.60800171 C319.17438155 7.60247201 320.3257376 7.59694232 321.51198322 7.59124506 C323.09259399 7.60450482 323.09259399 7.60450482 324.7051363 7.61803246 C326.06765537 7.62006725 326.06765537 7.62006725 327.45770007 7.62214315 C330.58888118 8.08752421 332.4482068 9.14947659 335 11 C337.81436504 15.22154756 337.68304949 19.03975968 337 24 C335.11484777 26.57637471 333.80665143 27.59667428 331 29 C328.81120769 29.09781406 326.61933697 29.12844677 324.42836094 29.13028526 C323.39909061 29.13320041 323.39909061 29.13320041 322.34902695 29.13617444 C320.02673911 29.1415309 317.70451005 29.13972676 315.38221741 29.13803101 C313.70953649 29.14044735 312.03685616 29.14330908 310.36417669 29.14658034 C305.74948858 29.15435881 301.13481532 29.15595411 296.52012146 29.15663147 C291.54988835 29.15846676 286.57966402 29.16607126 281.60943604 29.17311096 C272.98963086 29.18465248 264.36982764 29.19288864 255.75001717 29.19923019 C242.12422008 29.20954432 228.49844749 29.23010569 214.87266541 29.25234985 C210.21301754 29.25983022 205.55336958 29.26724389 200.89372158 29.27463722 C199.14677065 29.27741307 199.14677065 29.27741307 197.36452778 29.280245 C184.09775724 29.30118541 170.83098398 29.32000626 157.56420898 29.33789062 C156.35104519 29.33952881 155.1378814 29.34116699 153.88795506 29.34285481 C134.24051027 29.36912388 114.59306359 29.38777497 94.94560868 29.40448253 C74.78039886 29.42190742 54.6152259 29.45075897 34.45004553 29.4893719 C22.00952761 29.51276681 9.56906981 29.52676602 -2.87147028 29.52869953 C-11.4015478 29.53081004 -19.93156558 29.54374881 -28.46161627 29.56517886 C-33.38240028 29.57719869 -38.3030657 29.58436533 -43.2238636 29.57846642 C-47.73270039 29.57315822 -52.24129559 29.58169063 -56.7500921 29.60102279 C-58.37739807 29.6055851 -60.00472777 29.60514605 -61.63202881 29.59907441 C-78.97096286 29.5401781 -93.88530555 33.22385149 -106.75 45.59375 C-117.26773026 56.84187819 -122.39648141 70.21082192 -122.20703125 85.5390625 C-121.45740683 98.07051984 -115.9852426 111.94729152 -107.203125 121.125 C-99.43369663 127.73727946 -91.05011749 132.89211019 -81 135 C-80.4382611 135.17139392 -79.8765222 135.34278783 -79.2977609 135.5193755 C-76.21742204 136.16369246 -73.29774098 136.12624382 -70.14988804 136.12749195 C-69.45791418 136.12913578 -68.76594032 136.13077962 -68.05299756 136.13247326 C-65.72310146 136.13680157 -63.39326752 136.13400899 -61.06336975 136.13130188 C-59.38056195 136.13300363 -57.69775455 136.13515313 -56.01494783 136.13771313 C-52.35039425 136.14231476 -48.68585757 136.1437301 -45.02130127 136.14274788 C-39.05943638 136.14115687 -33.09758831 136.14635335 -27.13572693 136.15237427 C-18.48047452 136.16049135 -9.82522507 136.16543245 -1.16996956 136.16866493 C12.50474669 136.17415733 26.17943794 136.19104996 39.85414124 136.21000671 C44.53040596 136.21636355 49.20667074 136.22267195 53.88293552 136.22898388 C55.63593593 136.23135952 55.63593593 136.23135952 57.42435048 136.23378316 C70.73073381 136.25172383 84.03711891 136.2679489 97.34350586 136.28295898 C99.16840176 136.28502279 99.16840176 136.28502279 101.03016425 136.28712829 C120.75590313 136.3090696 140.48163559 136.31981724 160.20738452 136.32732973 C180.44721628 136.33539352 200.68699288 136.35865911 220.92679316 136.3952834 C233.41815089 136.41733864 245.90939528 136.42696382 258.40077151 136.42078307 C266.9564969 136.41761468 275.51212533 136.42889748 284.06782072 136.45167748 C289.00816215 136.46437694 293.94828763 136.47047698 298.88863754 136.45926094 C303.40824582 136.44913163 307.92743384 136.45726006 312.44699223 136.4801239 C314.08489854 136.48513967 315.72284225 136.48334964 317.36073064 136.47419123 C319.58234632 136.46274229 321.802516 136.47574914 324.0240469 136.49498463 C325.25938716 136.49596144 326.49472743 136.49693824 327.76750225 136.49794465 C331.60732277 137.09432633 333.25801259 138.30064955 336 141 C337.84862688 144.69725375 337.47587094 148.96461442 337 153 C335.20353146 155.93423195 334.0558929 157.47205355 331 159 C328.78798616 159.09913209 326.57288578 159.13103553 324.35865402 159.13422108 C323.66493073 159.13657331 322.97120743 159.13892554 322.25646222 159.14134905 C319.90848787 159.14805919 317.5605686 159.14758022 315.21258545 159.14717102 C313.52141842 159.15046844 311.83025219 159.15419374 310.13908696 159.1583125 C305.47318466 159.16835532 300.80729523 159.17205298 296.14138365 159.17470181 C291.11587696 159.17859835 286.09038053 159.18817741 281.06488037 159.19691467 C268.91574302 159.21670188 256.76660481 159.22675007 244.61745536 159.23564246 C238.89710236 159.24002338 233.17675028 159.24539085 227.45639801 159.25063133 C208.43984036 159.26764907 189.4232833 159.28214183 170.40671921 159.28938007 C165.46873728 159.29129001 160.53075535 159.29321033 155.59277344 159.29516602 C154.3654435 159.29564976 153.13811356 159.2961335 151.87359181 159.2966319 C132.00504567 159.30492676 112.13655985 159.33025206 92.26804003 159.36274669 C71.87118407 159.39583332 51.47435872 159.41383046 31.07747579 159.41702431 C19.62488269 159.41918838 8.17237743 159.42792145 -3.28018951 159.45348549 C-13.03747594 159.47521471 -22.79465321 159.48323211 -32.55196109 159.47351871 C-37.52784947 159.46897991 -42.50351274 159.47083569 -47.47937012 159.49028015 C-52.04206029 159.50795536 -56.60436186 159.50687884 -61.16705641 159.49138286 C-62.81057741 159.48901333 -64.45412563 159.49329605 -66.09760514 159.50521151 C-86.22654043 159.64201258 -103.84721764 153.71211035 -119 140 C-119.76957031 139.32324219 -120.53914063 138.64648438 -121.33203125 137.94921875 C-134.91244421 125.29421724 -143.34850786 106.52391437 -144.3203125 88.03515625 C-144.95822126 67.84331594 -139.74020276 49.28191842 -126 34 C-125.22140625 33.11699219 -124.4428125 32.23398437 -123.640625 31.32421875 C-111.61360054 18.46099584 -94.52339209 8.64174361 -76.57162476 7.84851074 C-74.60330185 7.82971863 -74.60330185 7.82971863 -72.59521484 7.81054688 C-71.8677858 7.80225357 -71.14035675 7.79396027 -70.3908844 7.78541565 C-68.81839491 7.76807815 -67.24588049 7.75289442 -65.67335129 7.73963928 C-63.18529435 7.71853246 -60.69736301 7.69151871 -58.2093811 7.66296387 C-52.03355199 7.59329191 -45.85763322 7.5337001 -39.68170166 7.47393799 C-34.455609 7.42300326 -29.22958553 7.36819047 -24.00358963 7.30812073 C-21.55127263 7.28155157 -19.09894907 7.26073828 -16.64657593 7.2401123 C-15.14637947 7.22351104 -13.64618597 7.20663935 -12.14599609 7.18945312 C-10.83537201 7.17692505 -9.52474792 7.16439697 -8.17440796 7.15148926 C-4.97604202 7.14237325 -4.97604202 7.14237325 -2 6 C-1.34 4.02 -0.68 2.04 0 0 Z " fill="#FD9D5D" transform="translate(159,7)"/>
<path d="M0 0 C1.41907866 -0.00256327 1.41907866 -0.00256327 2.86682558 -0.00517833 C6.02054831 -0.00845906 9.17405583 0.00250712 12.32775879 0.01345825 C14.59491979 0.01402267 16.86208116 0.0137052 19.12924194 0.01257324 C25.27323249 0.01199993 31.41714479 0.02375083 37.56111717 0.03772116 C43.98597186 0.05023206 50.41082837 0.0513993 56.83569336 0.05377197 C67.61594247 0.0592799 78.39615741 0.07176842 89.1763916 0.08963013 C100.27730161 0.10800397 111.37820382 0.1221531 122.47912598 0.13064575 C123.16403317 0.1311712 123.84894037 0.13169665 124.55460232 0.13223802 C127.99077359 0.1348482 131.42694491 0.13737559 134.86311626 0.13986182 C163.34418935 0.16057625 191.82522886 0.19633855 220.30627441 0.24050903 C220.30627441 7.17050903 220.30627441 14.10050903 220.30627441 21.24050903 C217.511884 21.24637527 214.71749359 21.25224152 211.83842468 21.25828552 C186.18455803 21.31351802 160.53076488 21.38350893 134.87698222 21.46949532 C131.51137231 21.48076282 128.14576198 21.49190138 124.78015137 21.50296021 C124.11014846 21.50516389 123.44014555 21.50736757 122.74983952 21.50963803 C111.91615117 21.54496358 101.08246288 21.56985444 90.24873837 21.59085605 C79.1236692 21.61265597 67.99867007 21.64596673 56.87366277 21.68921059 C50.62855859 21.71312378 44.38353658 21.73186511 38.13838768 21.73812294 C32.25575697 21.74418229 26.37333649 21.76421332 20.49078369 21.79478455 C18.33620477 21.80355106 16.18159836 21.80729024 14.02700233 21.8055172 C-1.10541036 21.62888864 -1.10541036 21.62888864 -15.69372559 25.24050903 C-16.81005371 25.67750122 -17.92638184 26.11449341 -19.07653809 26.56472778 C-34.64344694 34.30383204 -43.04067332 45.9354244 -48.69372559 62.24050903 C-52.17477447 76.01048088 -49.00764091 90.05942474 -42.48278809 102.35379028 C-34.15008205 115.79892076 -21.7543065 123.75346822 -6.63415623 127.79039288 C-2.31160768 128.45208131 1.96675577 128.38852613 6.33363342 128.38768005 C7.35188782 128.39135674 8.37014222 128.39503343 9.41925281 128.39882153 C12.83545587 128.40984572 16.2516285 128.41369999 19.66784668 128.41751099 C22.11526587 128.4237763 24.56268412 128.43042316 27.01010132 128.43742371 C34.35403523 128.45663387 41.69796106 128.46724625 49.0419127 128.4761515 C52.50068479 128.48053784 55.95945536 128.48590349 59.41822624 128.49114037 C70.91427702 128.50814347 82.41032686 128.52264021 93.90638828 128.52988911 C96.88693302 128.53179895 99.86747775 128.5337193 102.84802246 128.53567505 C103.58880879 128.53615879 104.32959512 128.53664253 105.09282952 128.53714093 C117.10789634 128.54545118 129.12286393 128.57080891 141.13788737 128.60325573 C153.47328234 128.63629651 165.8086268 128.65433488 178.14406627 128.65753335 C185.07023879 128.65970046 191.99626628 128.66847909 198.92239571 128.69399452 C205.432102 128.71792105 211.94159357 128.72154614 218.45135117 128.71123314 C220.84433167 128.71073548 223.23732466 128.71712299 225.63026619 128.73078918 C228.88912884 128.74836433 232.14703741 128.74147273 235.40589905 128.72825623 C236.35968321 128.73922547 237.31346737 128.75019472 238.29615408 128.76149637 C243.38744549 128.75771287 243.38744549 128.75771287 247.80004787 126.46002483 C249.52488683 124.02362156 249.52488683 124.02362156 251.30627441 120.24050903 C259.55627441 120.24050903 267.80627441 120.24050903 276.30627441 120.24050903 C276.96627441 122.22050903 277.62627441 124.20050903 278.30627441 126.24050903 C281.57314569 128.41842321 282.47984615 128.48943014 286.258255 128.4853363 C287.79122475 128.49124283 287.79122475 128.49124283 289.35516357 128.49726868 C290.47574158 128.49157364 291.59631958 128.4858786 292.75085449 128.48001099 C293.93159042 128.48202515 295.11232635 128.48403931 296.32884216 128.4861145 C299.56867604 128.49059286 302.80838939 128.48663302 306.0482161 128.48056817 C309.44071869 128.47759346 312.83315362 128.48972182 316.22563171 128.50154114 C327.78189762 128.53928541 339.3380844 128.55747841 350.89440918 128.54592896 C357.2769687 128.53970732 363.65924422 128.55132049 370.04173392 128.58237427 C373.41790178 128.59795827 376.79351055 128.60406632 380.16968727 128.58779335 C383.93807388 128.57348545 387.70519424 128.58972059 391.47351074 128.61282349 C392.58801605 128.60105576 393.70252136 128.58928802 394.85079956 128.5771637 C403.29045016 128.67870065 403.29045016 128.67870065 407.00041199 131.62348938 C410.19232201 135.24612149 410.053724 137.23651702 409.77111816 141.86160278 C409.11769188 145.20560786 407.8378769 146.99823254 405.30627441 149.24050903 C401.86235262 150.38848297 399.21025269 150.36947189 395.57590866 150.37473011 C394.88470786 150.37708234 394.19350707 150.37943457 393.48136079 150.38185808 C391.147979 150.38855442 388.81465281 150.38808966 386.48126221 150.38768005 C384.79819442 150.39097832 383.11512742 150.39470381 381.43206143 150.39882153 C376.79315224 150.40885455 372.15425598 150.41256044 367.51533747 150.41521084 C362.51709599 150.41911024 357.5188648 150.42868907 352.52062988 150.43742371 C340.44012944 150.45720222 328.35962815 150.46725774 316.27911556 150.4761515 C310.58977572 150.4805336 304.90043682 150.48590075 299.21109772 150.49114037 C280.2957262 150.50815681 261.38035526 150.52264952 242.46497726 150.52988911 C237.55432891 150.53179901 232.64368056 150.53371934 227.73303223 150.53567505 C225.90225088 150.53640066 225.90225088 150.53640066 224.03448406 150.53714093 C204.27660785 150.54543563 184.51879229 150.57076125 164.76094255 150.60325573 C144.4736613 150.63634858 124.18641083 150.65434003 103.89910245 150.65753335 C92.50964936 150.65969677 81.12028462 150.66842057 69.73085785 150.69399452 C60.02742286 150.7157322 50.32409766 150.72373697 40.62064108 150.71402774 C35.67297508 150.70949146 30.72553546 150.71132999 25.7779007 150.73078918 C21.2398698 150.74848244 16.70222942 150.74737342 12.16419402 150.73189189 C10.53077923 150.72952509 8.89733696 150.73379071 7.26396403 150.74572054 C-12.47090114 150.88081993 -30.69451476 145.72919863 -45.69372559 132.24050903 C-47.03563965 131.05521606 -47.03563965 131.05521606 -48.40466309 129.84597778 C-61.88808042 117.23067088 -71.03846008 99.28893002 -71.94763184 80.73269653 C-72.62516013 59.68224039 -67.06468835 40.67564778 -52.95935059 24.62722778 C-39.07312366 9.99880597 -20.46783711 -0.13680246 0 0 Z " fill="#FD7792" transform="translate(86.6937255859375,346.7594909667969)"/>
<path d="M0 0 C1.03481502 -0.00480972 1.03481502 -0.00480972 2.0905354 -0.0097166 C4.41342985 -0.01804992 6.73606869 -0.01208072 9.05896759 -0.00622082 C10.73678778 -0.00924002 12.4146066 -0.01312833 14.09242296 -0.01781338 C18.7120839 -0.02813266 23.33166757 -0.02590156 27.95133495 -0.02163279 C32.93041772 -0.01917255 37.90948154 -0.02817119 42.88855743 -0.03567028 C52.64844226 -0.04844071 62.4082996 -0.05020791 72.16819137 -0.04787002 C80.10277961 -0.04608865 88.03735948 -0.04783262 95.97194672 -0.05209446 C97.10028747 -0.05268965 98.22862822 -0.05328484 99.39116111 -0.05389806 C101.68330221 -0.0551098 103.97544329 -0.05632393 106.26758438 -0.05754044 C127.78156779 -0.06842584 149.29553553 -0.06624926 170.80951983 -0.06015559 C190.48528507 -0.0549904 210.16100074 -0.06622959 229.83675617 -0.08525381 C250.03704711 -0.10463541 270.23731462 -0.11288734 290.43761492 -0.10913056 C301.77942821 -0.10721838 313.12119936 -0.10970734 324.46300507 -0.1238451 C334.12294318 -0.13576425 343.78281324 -0.13715808 353.4427523 -0.12505493 C358.36975927 -0.11916889 363.29664179 -0.11805912 368.22364044 -0.13005733 C372.7392203 -0.14092552 377.25457195 -0.13780157 381.77014118 -0.12379565 C383.39875721 -0.12115121 385.02739118 -0.12350727 386.65598959 -0.13153151 C395.88201076 -0.17381244 404.28746106 0.45826563 413.16944122 3.25447559 C414.3321756 3.60767872 415.49490997 3.96088184 416.69287872 4.32478809 C437.54121021 12.03581481 451.92721805 25.9303697 461.48194122 46.00447559 C469.08930083 63.16149938 469.74010718 83.62811046 463.16944122 101.25447559 C459.15841239 110.93235635 454.26269393 119.47945832 447.16944122 127.25447559 C446.39407013 128.16713184 446.39407013 128.16713184 445.60303497 129.09822559 C433.97021595 141.92639694 414.82554777 150.23724509 397.66077423 151.42859364 C395.10653455 151.48306578 392.55999451 151.48020054 390.00537872 151.44978809 C389.08729431 151.4469582 388.1692099 151.4441283 387.22330475 151.44121265 C384.33020986 151.43013958 381.43744037 151.40506027 378.54444122 151.37947559 C376.56658115 151.36942911 374.58871617 151.36030621 372.61084747 151.35213184 C367.79682334 151.33195572 362.9834906 151.29278368 358.16944122 151.25447559 C358.16944122 143.99447559 358.16944122 136.73447559 358.16944122 129.25447559 C362.40014435 129.19840137 362.40014435 129.19840137 366.71631622 129.14119434 C369.48673446 129.09481431 372.25702632 129.04364099 375.02735138 128.99202442 C376.93384696 128.95903172 378.84043421 128.93092241 380.74707794 128.90804005 C399.87767566 128.6722933 416.53994888 126.52878824 430.98584747 112.66072559 C441.02890189 101.59360301 445.58538076 86.79305986 445.44678497 72.08650684 C444.35112369 56.94786289 437.12756216 44.47027221 426.16944122 34.25447559 C422.97997325 31.91753837 419.69931346 30.02774999 416.16944122 28.25447559 C415.38182404 27.85357716 414.59420685 27.45267872 413.78272247 27.03963184 C406.95653823 23.78299726 400.52177138 23.12998998 392.96859646 23.12698364 C392.27514904 23.12533981 391.58170162 23.12369598 390.86724064 23.12200233 C388.55038665 23.11770059 386.233596 23.12045833 383.91674042 23.12317371 C382.23618094 23.12147066 380.55562187 23.11932055 378.87506348 23.11676246 C375.22469082 23.11217212 371.57433511 23.11074329 367.92395973 23.11172771 C361.98441783 23.11332253 356.0448927 23.10811411 350.10535431 23.10210133 C341.48289686 23.09399337 332.86044236 23.08904632 324.2379818 23.08581066 C310.61315796 23.08031212 296.98835913 23.06341365 283.36354828 23.04446888 C278.70209793 23.03811247 274.04064753 23.03180403 269.37919712 23.02549171 C267.63188629 23.02311607 267.63188629 23.02311607 265.84927626 23.02069243 C252.59345087 23.00276065 239.33762374 22.98653078 226.08179474 22.97151661 C224.8701469 22.97014074 223.65849906 22.96876487 222.41013462 22.9673473 C202.75962709 22.94540044 183.109126 22.93465654 163.45860838 22.92714586 C143.28760748 22.91908076 123.11666191 22.89581225 102.9456926 22.85919219 C90.5009704 22.83714627 78.0563619 22.82750893 65.61162115 22.83369253 C57.08862233 22.83686204 48.5657208 22.82557063 40.04275208 22.80279811 C35.12251831 22.79010551 30.20250124 22.7839905 25.28225899 22.79521465 C20.77998827 22.80535366 16.278139 22.79719524 11.77591825 22.77435169 C10.1454862 22.76934143 8.51501657 22.7711156 6.8846026 22.78028437 C4.67070719 22.79175757 2.45825598 22.77869932 0.24444485 22.75949097 C-1.601 22.75802575 -1.601 22.75802575 -3.48372656 22.75653094 C-8.0486978 22.07174363 -11.39618489 20.14524117 -14.20555878 16.44197559 C-15.13234111 13.19823744 -15.18396773 10.61186067 -14.83055878 7.25447559 C-10.91908092 0.96817189 -7.15455032 0.00503613 0 0 Z " fill="#569DA1" transform="translate(29.83055877685547,180.7455244064331)"/>
<path d="M0 0 C1.5010979 -0.00597315 1.5010979 -0.00597315 3.03252101 -0.01206696 C4.12978991 -0.00624128 5.22705881 -0.00041559 6.35757828 0.00558662 C8.10842346 0.00302335 8.10842346 0.00302335 9.89463925 0.00040829 C13.13510984 -0.00231891 16.3754209 0.00394122 19.61587262 0.01396441 C23.11004079 0.02259363 26.6042014 0.01967913 30.09837723 0.01815987 C36.15247489 0.01711068 42.20652948 0.0233908 48.2606163 0.03463554 C57.01382539 0.05088302 65.76701363 0.05609778 74.52023616 0.05861153 C88.72142012 0.06298981 102.92258111 0.07630254 117.12375259 0.09521675 C130.91964986 0.11357209 144.71554089 0.12773029 158.51144791 0.13623238 C159.36169075 0.13675782 160.2119336 0.13728327 161.08794138 0.13782464 C165.35331911 0.1404347 169.61869688 0.14296212 173.88407469 0.14544845 C209.27501952 0.1661851 244.66593514 0.20196433 280.05685806 0.24609566 C280.05685806 7.50609566 280.05685806 14.76609566 280.05685806 22.24609566 C243.85169201 22.33650171 207.64655874 22.40812358 171.44130301 22.45035698 C167.16797221 22.45535987 162.89464164 22.46053715 158.62131119 22.46582222 C157.77055984 22.46687146 156.91980849 22.4679207 156.0432768 22.46900174 C142.26389364 22.486412 128.48457715 22.51795311 114.70523356 22.55470684 C100.56875362 22.59209899 86.43230862 22.61432785 72.29578125 22.62244964 C63.57115742 22.627941 54.84672205 22.64529152 46.12215622 22.67776152 C40.14124177 22.69888811 34.1604249 22.70529992 28.17947583 22.70010117 C24.72754899 22.69753646 21.27595172 22.70149703 17.82408333 22.72291756 C14.08181978 22.74275853 10.34036886 22.73805526 6.59808731 22.72711372 C4.96092249 22.74459077 4.96092249 22.74459077 3.29068363 22.76242089 C-2.76871517 22.71438909 -6.33416846 22.30659275 -10.94314194 18.24609566 C-13.52850738 14.83811393 -13.3809614 11.40538055 -12.94314194 7.24609566 C-9.60375491 1.87922364 -6.23025109 -0.00547474 0 0 Z " fill="#569B9F" transform="translate(27.94314193725586,309.75390434265137)"/>
<path d="M0 0 C16.5 0 33 0 50 0 C50 42.57 50 85.14 50 129 C42.22222222 122.33333333 42.22222222 122.33333333 39 119.5 C38.33097656 118.9225 37.66195312 118.345 36.97265625 117.75 C35.6758127 116.59953285 34.4107547 115.4120219 33.18359375 114.1875 C30.25835719 111.36042574 28.74605801 110.09671122 24.625 109.5625 C20.04385658 111.37916032 17.60259835 114.01035535 14.2734375 117.578125 C9.92021931 122.21557393 5.0810085 126.18924363 0 130 C0 87.1 0 44.2 0 0 Z " fill="#FED78E" transform="translate(323,264)"/>
<path d="M0 0 C51.77251678 -0.06867728 103.54502895 -0.12153447 155.31758232 -0.15319599 C161.43079714 -0.15694808 167.54401188 -0.16083105 173.65722656 -0.16479492 C174.87424966 -0.16558185 176.09127277 -0.16636878 177.34517536 -0.16717956 C197.04705516 -0.18023093 216.74890869 -0.20388331 236.45077291 -0.23145839 C256.66901109 -0.25952003 276.8872355 -0.27617787 297.10549235 -0.28226548 C309.57967471 -0.28638034 322.05378278 -0.29937357 334.52794227 -0.3237494 C343.08372252 -0.33961593 351.6394644 -0.34439827 360.19525829 -0.34050413 C365.13034522 -0.33858403 370.06530239 -0.34151283 375.00036621 -0.35761642 C379.5234965 -0.37226771 384.04641037 -0.37291854 388.56955084 -0.36269668 C390.20098269 -0.36143423 391.8324283 -0.36519533 393.46383324 -0.37464955 C402.69895813 -0.42503189 411.10935222 0.1981735 420 3 C421.16273438 3.35320312 422.32546875 3.70640625 423.5234375 4.0703125 C444.37176899 11.78133921 458.75777683 25.67589411 468.3125 45.75 C475.9198596 62.90702379 476.57066595 83.37363487 470 101 C465.98897117 110.67788076 461.0932527 119.22498272 454 127 C453.22462891 127.91265625 453.22462891 127.91265625 452.43359375 128.84375 C440.80077473 141.67192135 421.65610655 149.9827695 404.49133301 151.17411804 C401.93709332 151.22859019 399.39055329 151.22572495 396.8359375 151.1953125 C395.91785309 151.1924826 394.99976868 151.18965271 394.05386353 151.18673706 C391.16076864 151.17566399 388.26799914 151.15058467 385.375 151.125 C383.39713993 151.11495352 381.41927494 151.10583061 379.44140625 151.09765625 C374.62738212 151.07748012 369.81404938 151.03830809 365 151 C365 143.74 365 136.48 365 129 C369.23070312 128.94392578 369.23070312 128.94392578 373.546875 128.88671875 C376.31729324 128.84033872 379.0875851 128.7891654 381.85791016 128.73754883 C383.76440574 128.70455612 385.67099299 128.67644681 387.57763672 128.65356445 C406.70823444 128.41781771 423.37050766 126.27431265 437.81640625 112.40625 C447.85946067 101.33912742 452.41593954 86.53858427 452.27734375 71.83203125 C451.18476647 56.73599875 443.97899172 44.15862191 433 34 C429.78279049 31.74750464 426.49210913 29.79344227 423 28 C423.66 27.67 424.32 27.34 425 27 C417.13228843 16.07121736 405.99661665 3.94627056 392.2067169 1.26147461 C387.9186148 0.98052219 383.69668871 0.94257524 379.40299988 1 C377.75833995 0.99236574 376.11369326 0.98122422 374.46907789 0.96691227 C369.98294002 0.93788524 365.49821162 0.95814574 361.01212299 0.98693204 C356.16220205 1.00925225 351.31247722 0.98518958 346.46257019 0.96690369 C338.07088049 0.94154506 329.67961284 0.94524508 321.28792381 0.96896362 C309.15520085 1.00321351 297.02282801 0.99320149 284.89008895 0.97256029 C265.20328044 0.94026168 245.51664591 0.94351011 225.82983398 0.96923828 C206.71163602 0.99414694 187.59355229 1.00223648 168.4753418 0.98779297 C167.29590695 0.98690776 166.11647211 0.98602255 164.90129682 0.98511052 C158.9841226 0.980566 153.06694872 0.97569173 147.14977491 0.97065353 C98.09979679 0.92931605 49.04995912 0.94572079 0 1 C0 0.67 0 0.34 0 0 Z " fill="#408D91" transform="translate(23,181)"/>
<path d="M0 0 C8.25 0 16.5 0 25 0 C25 42.57 25 85.14 25 129 C17.22222222 122.33333333 17.22222222 122.33333333 14 119.5 C13.33613281 118.91992188 12.67226563 118.33984375 11.98828125 117.7421875 C10.66864284 116.58588351 9.35347774 115.42445324 8.04296875 114.2578125 C7.43066406 113.71898437 6.81835938 113.18015625 6.1875 112.625 C5.64480469 112.14289063 5.10210937 111.66078125 4.54296875 111.1640625 C2.88486512 109.78444908 2.88486512 109.78444908 0 109 C0 73.03 0 37.06 0 0 Z " fill="#FEC862" transform="translate(348,264)"/>
<path d="M0 0 C124.08 0 248.16 0 376 0 C374.515 4.455 374.515 4.455 373 9 C365.73615063 31.32354836 365.70081424 52.47492462 375.265625 74.1796875 C376 76 376 76 376 78 C365.77 78 355.54 78 345 78 C334.81626886 57.63253772 331.45584605 38.58171456 337.84765625 16.44921875 C342.01020408 3.98979592 342.01020408 3.98979592 344 2 C230.48 1.67 116.96 1.34 0 1 C0 0.67 0 0.34 0 0 Z " fill="#F3E6CD" transform="translate(84,51)"/>
<path d="M0 0 C10.23 0 20.46 0 31 0 C30.01 2.97 29.02 5.94 28 9 C27.28064312 11.16303172 26.57113238 13.32938251 25.875 15.5 C25.37613281 17.03140625 25.37613281 17.03140625 24.8671875 18.59375 C20.42400053 36.04626819 21.64190716 56.99795319 30.09423828 73.08227539 C31 75 31 75 31 78 C0.64 78 -29.72 78 -61 78 C-61 77.67 -61 77.34 -61 77 C-41.2 76.67 -21.4 76.34 -1 76 C-2.98 71.71 -4.96 67.42 -7 63 C-12.52713318 47.15555155 -11.94102019 27.71034484 -6 12 C-4.02 8.04 -2.04 4.08 0 0 Z " fill="#FBEDD3" transform="translate(429,383)"/>
<path d="M0 0 C13.21277723 -0.11292378 26.42523441 -0.20467219 39.63838482 -0.25906086 C45.77367252 -0.2851636 51.9086132 -0.3205751 58.04370117 -0.37719727 C63.96351854 -0.43149125 69.88300196 -0.46141543 75.80304909 -0.47438622 C78.06254141 -0.48363067 80.32201529 -0.50168286 82.58136559 -0.52865028 C85.74434396 -0.56490467 88.90593936 -0.5699467 92.0690918 -0.56762695 C93.00489075 -0.58560333 93.9406897 -0.60357971 94.90484619 -0.62210083 C99.45395541 -0.58595833 101.37609056 -0.48174011 105.08137512 2.37922668 C107.74042578 6.01139527 107.6504802 8.26368478 107.4296875 12.62109375 C106.82263068 15.98198103 105.53456252 17.75510177 103 20 C100.25540752 20.91486416 98.66575333 21.12379643 95.84284973 21.12025452 C94.57454063 21.12231651 94.57454063 21.12231651 93.28060913 21.12442017 C92.35632111 21.12082489 91.43203308 21.11722961 90.47973633 21.11352539 C89.01604362 21.11374443 89.01604362 21.11374443 87.52278137 21.1139679 C84.29250884 21.11327038 81.06229373 21.10548545 77.83203125 21.09765625 C75.59429455 21.0957915 73.35655744 21.09436787 71.11882019 21.09336853 C65.22513708 21.08954784 59.33147856 21.07972135 53.43780518 21.06866455 C47.42533704 21.05844081 41.41286494 21.05386884 35.40039062 21.04882812 C23.60024787 21.03809871 11.80012982 21.02050551 0 21 C0 14.07 0 7.14 0 0 Z " fill="#FD7792" transform="translate(389,347)"/>
<path d="M0 0 C-4.78547159 6.54520849 -9.75092852 11.96483825 -16.125 16.9375 C-16.69814941 17.38520752 -17.27129883 17.83291504 -17.86181641 18.29418945 C-19.54727189 19.57237069 -21.26905714 20.78450237 -23 22 C-23.97839844 22.75925781 -24.95679688 23.51851563 -25.96484375 24.30078125 C-31.73534954 27.49597342 -39.03337726 26.40844019 -45.4375 26.25 C-46.85088621 26.2299083 -48.26429993 26.21166223 -49.67773438 26.1953125 C-53.1197301 26.15493718 -56.55786397 26.07663383 -60 26 C-60 19.4 -60 12.8 -60 6 C-57.586875 5.97421875 -55.17375 5.9484375 -52.6875 5.921875 C-50.29090829 5.88321274 -47.89451453 5.83813195 -45.49804688 5.79248047 C-43.86142799 5.76464899 -42.22468413 5.7432513 -40.58789062 5.72900391 C-28.39183228 5.61663236 -16.59895928 4.7178928 -5.2421875 -0.19238281 C-3 -1 -3 -1 0 0 Z " fill="#58A0A4" transform="translate(449,305)"/>
</svg>
