<?xml version="1.0" encoding="UTF-8"?>
<svg version="1.1" xmlns="http://www.w3.org/2000/svg" width="512" height="512">
<path d="M0 0 C0.90830566 0.21962402 1.81661133 0.43924805 2.75244141 0.66552734 C36.84513596 9.16614097 67.37394795 26.21416896 92.60400391 50.65087891 C93.86288945 51.86749337 95.13941755 53.06578798 96.41796875 54.26171875 C125.10176704 81.72709021 142.29581333 120.38774974 149 159 C149.19480957 160.08740479 149.19480957 160.08740479 149.39355469 161.19677734 C157.20672883 206.77362648 146.16097467 255.97154965 121.0546875 294.546875 C119.73894683 296.86420437 119.73894683 296.86420437 120.57989883 298.78578758 C122.55801156 301.87004796 125.07002475 304.32397927 127.66693115 306.88052368 C128.25243815 307.46491726 128.83794514 308.04931084 129.44119477 308.65141332 C131.40629817 310.61043995 133.37844678 312.56221846 135.35058594 314.51416016 C136.76030442 315.91676657 138.16955414 317.31984426 139.57836914 318.72335815 C142.61494437 321.74682465 145.65449784 324.76725409 148.69628143 327.7854805 C153.50990729 332.56252585 158.31483731 337.34825271 163.1182251 342.1355896 C176.77938631 355.74844855 190.45215278 369.34961528 204.13378906 382.94189453 C211.68861619 390.44753315 219.23616693 397.96041368 226.77606416 405.48105085 C231.54476864 410.23670413 236.32232903 414.98321711 241.10672712 419.72307897 C244.08961058 422.68240917 247.06400689 425.65015846 250.03613281 428.62028885 C251.41043408 429.99031494 252.78815499 431.3569211 254.16962433 432.71971893 C264.56928204 442.98429155 273.97645146 452.54202696 274.43188477 468.05053711 C274.46460174 480.50148043 271.41525899 489.61417928 262.61328125 498.80078125 C252.32773466 507.45662988 240.92784254 509.07531776 228 508 C213.58000245 505.12293318 203.76806781 493.05113432 193.85131836 483.07836914 C192.44157176 481.6680576 191.03138304 480.25818788 189.62078857 478.84872437 C185.81323381 475.04174088 182.0118554 471.22864469 178.21159434 467.41438222 C174.23137762 463.4216205 170.2454555 459.43456255 166.26014709 455.44688416 C158.72344894 447.90398229 151.19186141 440.35599897 143.66211754 432.80615562 C135.08562794 424.20727246 126.50342463 415.61410159 117.92074764 407.02139485 C100.27415426 389.35392459 82.63471254 371.67932852 65 354 C61.79269906 355.25962384 58.81669447 356.58291099 55.83984375 358.3203125 C10.44498119 384.34427258 -42.76257745 392.30875475 -93.72241211 379.10961914 C-122.30496055 371.25419777 -148.94427831 357.8977518 -171 338 C-172.37415442 336.83233748 -173.74904855 335.66554439 -175.125 334.5 C-184.91259615 325.82043361 -193.20519152 316.47168466 -201 306 C-201.63679688 305.14664062 -202.27359375 304.29328125 -202.9296875 303.4140625 C-204.68445452 300.98003082 -206.35530589 298.50973638 -208 296 C-208.68449219 294.96359375 -209.36898437 293.9271875 -210.07421875 292.859375 C-226.95223098 266.48957714 -238.01807448 232.85598905 -238.203125 201.390625 C-238.21018463 200.59025818 -238.21724426 199.78989136 -238.22451782 198.965271 C-238.45043171 165.83096614 -238.45043171 165.83096614 -235 151 C-234.80132324 150.10539063 -234.60264648 149.21078125 -234.39794922 148.2890625 C-226.83827623 114.85662104 -211.63428171 85.63608432 -189 60 C-188.278125 59.15566406 -187.55625 58.31132813 -186.8125 57.44140625 C-182.53695244 52.48945371 -178.00235525 48.20265901 -173 44 C-172.07703125 43.17757812 -171.1540625 42.35515625 -170.203125 41.5078125 C-125.08324943 1.59601046 -58.44729536 -14.2641158 0 0 Z " fill="#CDE1F1" transform="translate(238,4)"/>
<path d="M0 0 C0.90830566 0.21962402 1.81661133 0.43924805 2.75244141 0.66552734 C36.84513596 9.16614097 67.37394795 26.21416896 92.60400391 50.65087891 C93.86288945 51.86749337 95.13941755 53.06578798 96.41796875 54.26171875 C125.10176704 81.72709021 142.29581333 120.38774974 149 159 C149.19480957 160.08740479 149.19480957 160.08740479 149.39355469 161.19677734 C157.20672883 206.77362648 146.16097467 255.97154965 121.0546875 294.546875 C119.73894683 296.86420437 119.73894683 296.86420437 120.57989883 298.78578758 C122.55801156 301.87004796 125.07002475 304.32397927 127.66693115 306.88052368 C128.25243815 307.46491726 128.83794514 308.04931084 129.44119477 308.65141332 C131.40629817 310.61043995 133.37844678 312.56221846 135.35058594 314.51416016 C136.76030442 315.91676657 138.16955414 317.31984426 139.57836914 318.72335815 C142.61494437 321.74682465 145.65449784 324.76725409 148.69628143 327.7854805 C153.50990729 332.56252585 158.31483731 337.34825271 163.1182251 342.1355896 C176.77938631 355.74844855 190.45215278 369.34961528 204.13378906 382.94189453 C211.68861619 390.44753315 219.23616693 397.96041368 226.77606416 405.48105085 C231.54476864 410.23670413 236.32232903 414.98321711 241.10672712 419.72307897 C244.08961058 422.68240917 247.06400689 425.65015846 250.03613281 428.62028885 C251.41043408 429.99031494 252.78815499 431.3569211 254.16962433 432.71971893 C264.56928204 442.98429155 273.97645146 452.54202696 274.43188477 468.05053711 C274.46460174 480.50148043 271.41525899 489.61417928 262.61328125 498.80078125 C252.32773466 507.45662988 240.92784254 509.07531776 228 508 C213.58000245 505.12293318 203.76806781 493.05113432 193.85131836 483.07836914 C192.44157176 481.6680576 191.03138304 480.25818788 189.62078857 478.84872437 C185.81323381 475.04174088 182.0118554 471.22864469 178.21159434 467.41438222 C174.23137762 463.4216205 170.2454555 459.43456255 166.26014709 455.44688416 C158.72344894 447.90398229 151.19186141 440.35599897 143.66211754 432.80615562 C135.08562794 424.20727246 126.50342463 415.61410159 117.92074764 407.02139485 C100.27415426 389.35392459 82.63471254 371.67932852 65 354 C61.79269906 355.25962384 58.81669447 356.58291099 55.83984375 358.3203125 C10.44498119 384.34427258 -42.76257745 392.30875475 -93.72241211 379.10961914 C-122.30496055 371.25419777 -148.94427831 357.8977518 -171 338 C-172.37415442 336.83233748 -173.74904855 335.66554439 -175.125 334.5 C-184.91259615 325.82043361 -193.20519152 316.47168466 -201 306 C-201.63679688 305.14664062 -202.27359375 304.29328125 -202.9296875 303.4140625 C-204.68445452 300.98003082 -206.35530589 298.50973638 -208 296 C-208.68449219 294.96359375 -209.36898437 293.9271875 -210.07421875 292.859375 C-226.95223098 266.48957714 -238.01807448 232.85598905 -238.203125 201.390625 C-238.21018463 200.59025818 -238.21724426 199.78989136 -238.22451782 198.965271 C-238.45043171 165.83096614 -238.45043171 165.83096614 -235 151 C-234.80132324 150.10539063 -234.60264648 149.21078125 -234.39794922 148.2890625 C-226.83827623 114.85662104 -211.63428171 85.63608432 -189 60 C-188.278125 59.15566406 -187.55625 58.31132813 -186.8125 57.44140625 C-182.53695244 52.48945371 -178.00235525 48.20265901 -173 44 C-172.07703125 43.17757812 -171.1540625 42.35515625 -170.203125 41.5078125 C-125.08324943 1.59601046 -58.44729536 -14.2641158 0 0 Z M-77 45 C-77.87414551 45.19352051 -78.74829102 45.38704102 -79.64892578 45.58642578 C-106.77133387 51.93269913 -128.78375822 66.22532385 -149 85 C-149.90685547 85.82564453 -149.90685547 85.82564453 -150.83203125 86.66796875 C-169.01579354 103.91486272 -181.26489588 128.1232963 -188 152 C-188.21172852 152.71978027 -188.42345703 153.43956055 -188.64160156 154.18115234 C-191.97202368 165.93263386 -192.38911305 177.61945546 -192.4375 189.75 C-192.44376404 190.48499725 -192.45002808 191.21999451 -192.45648193 191.9772644 C-192.53271133 206.12690117 -190.43631748 219.45569273 -186.25 233 C-185.99395996 233.83611816 -185.73791992 234.67223633 -185.47412109 235.53369141 C-177.031737 262.29589633 -161.17349232 287.45977473 -139 305 C-138.24904053 305.59482178 -138.24904053 305.59482178 -137.48291016 306.20166016 C-105.50279678 331.25661691 -66.19705846 343.01060866 -25.60351562 338.63378906 C7.75551617 333.93932028 36.88909152 319.2498046 61 296 C61.77859375 295.28457031 62.5571875 294.56914062 63.359375 293.83203125 C88.64164464 269.9393899 104.0697126 232.07439408 105.06640625 197.71044922 C106.06050108 154.84010988 91.84275278 116.88197818 62.4284668 85.44995117 C57.65205602 80.49303424 52.51601306 76.11984378 47 72 C46.01644531 71.26265625 45.03289062 70.5253125 44.01953125 69.765625 C19.22614387 51.90206639 -10.51792861 41.8387723 -41.10009766 41.75976562 C-43.33405493 41.75017577 -45.56704387 41.71916317 -47.80078125 41.6875 C-57.86860334 41.61319231 -67.18949497 42.77376474 -77 45 Z " fill="#34495E" transform="translate(238,4)"/>
<path d="M0 0 C3.74658726 1.56379456 6.13577324 3.87932454 8.99630737 6.72888184 C9.48551796 7.21356131 9.97472855 7.69824079 10.4787637 8.19760752 C12.11546789 9.82165997 13.74494844 11.45276919 15.37451172 13.08398438 C16.54721866 14.25070629 17.72033485 15.41701699 18.89382935 16.58294678 C22.08061693 19.75205795 25.26087931 22.92764048 28.43947744 26.1049633 C30.42777261 28.09183648 32.41748529 30.07727849 34.40771866 32.06221008 C41.35745564 38.99343667 48.30199799 45.92981948 55.24169922 52.87109375 C61.69905317 59.32964721 68.16745433 65.77698583 74.64119899 72.2191062 C80.20604118 77.75773585 85.76308245 83.30411188 91.31419575 88.8565011 C94.62630353 92.16911733 97.94140015 95.47859598 101.26436996 98.78031921 C104.39398224 101.89046707 107.51371085 105.01020934 110.62635422 108.13733673 C111.76526198 109.27832399 112.90753899 110.4159605 114.05355072 111.54981232 C123.81014962 121.20962981 132.00857189 130.63579869 132.43188477 145.05053711 C132.46460174 157.50148043 129.41525899 166.61417928 120.61328125 175.80078125 C110.32773466 184.45662988 98.92784254 186.07531776 86 185 C72.50693343 182.30787374 63.35740301 171.6479259 54.05444336 162.28149414 C52.8811471 161.10763266 51.70740813 159.93421352 50.53326416 158.76119995 C47.37031476 155.59882074 44.21353892 152.43034493 41.05789256 149.26068044 C37.75033855 145.94056312 34.43706133 142.62616695 31.12440491 139.31114197 C24.86267746 133.04321614 18.60606267 126.77021287 12.35129982 120.4953379 C5.22581922 113.34744703 -1.90538987 106.20528291 -9.03706944 99.06357777 C-23.69773157 84.38205086 -38.35123835 69.69340023 -53 55 C-51.23637287 51.22572433 -49.0585895 48.81692157 -46.09130859 45.86425781 C-45.59358444 45.36624161 -45.09586029 44.8682254 -44.58305359 44.3551178 C-42.9428793 42.71633267 -41.29574339 41.08473866 -39.6484375 39.453125 C-38.50742744 38.31584653 -37.36685923 37.1781246 -36.22671509 36.03997803 C-33.22921238 33.05010021 -30.22575149 30.06627809 -27.2210083 27.0836792 C-24.15413288 24.03728679 -21.09293306 20.98520297 -18.03125 17.93359375 C-12.02637217 11.95014566 -6.01518768 5.97308337 0 0 Z " fill="#FE8D30" transform="translate(380,327)"/>
<path d="M0 0 C7.17801984 6.43434248 13.59676033 13.14224372 19.3984375 20.8671875 C20.18476563 21.87652344 20.97109375 22.88585937 21.78125 23.92578125 C37.76167063 44.91898761 46.17133419 68.31453974 51.3984375 93.8671875 C51.57947021 94.60718994 51.76050293 95.34719238 51.94702148 96.10961914 C52.58153485 99.98567567 52.58117864 103.80465018 52.6015625 107.7265625 C52.60726257 108.58920715 52.61296265 109.45185181 52.61883545 110.34063721 C52.6282681 112.16962467 52.63481253 113.998629 52.63867188 115.82763672 C52.64825972 118.56640393 52.67924891 121.30438124 52.7109375 124.04296875 C52.80415175 139.22518637 51.01902685 153.33444235 46.2109375 167.8046875 C45.75811401 169.18744873 45.75811401 169.18744873 45.29614258 170.59814453 C38.82833321 189.85401175 29.7736146 207.46467057 16.3984375 222.8671875 C15.70234375 223.67285156 15.00625 224.47851562 14.2890625 225.30859375 C12.03099411 227.86693719 9.72819899 230.37400065 7.3984375 232.8671875 C6.57730469 233.7540625 5.75617188 234.6409375 4.91015625 235.5546875 C-10.271187 251.38826624 -29.32364701 262.79124349 -49.6015625 270.8671875 C-50.70242187 271.3621875 -51.80328125 271.8571875 -52.9375 272.3671875 C-57.10326986 274.0725773 -61.25367919 275.29061394 -65.6015625 276.4296875 C-66.35050781 276.63787109 -67.09945312 276.84605469 -67.87109375 277.06054688 C-81.69844698 280.71803085 -95.57954437 281.27612293 -109.7890625 281.2421875 C-110.64873627 281.24164368 -111.50841003 281.24109985 -112.39413452 281.24053955 C-125.19926557 281.20331057 -137.27033743 280.59242472 -149.6015625 276.8671875 C-150.32891602 276.66351563 -151.05626953 276.45984375 -151.80566406 276.25 C-184.56174058 267.00122545 -214.99540517 247.06573616 -235.6015625 219.8671875 C-236.25382812 219.03058594 -236.90609375 218.19398438 -237.578125 217.33203125 C-248.18213648 203.32713163 -255.68428687 188.35541068 -261.6015625 171.8671875 C-262.02308594 170.69285156 -262.44460938 169.51851562 -262.87890625 168.30859375 C-276.04732185 128.50519414 -271.09402391 83.8282678 -252.52685547 46.71923828 C-244.9112905 31.99855331 -235.45737709 19.13905032 -223.93994141 7.25244141 C-222.78584674 6.05792606 -221.65079392 4.84506668 -220.51953125 3.62890625 C-200.28066701 -17.63255323 -171.64124719 -31.31818566 -143.4140625 -37.8828125 C-142.51147705 -38.09381592 -141.6088916 -38.30481934 -140.67895508 -38.5222168 C-90.53661131 -49.64214507 -38.00648053 -33.37501203 0 0 Z M-141.6015625 -25.1328125 C-142.47570801 -24.93929199 -143.34985352 -24.74577148 -144.25048828 -24.54638672 C-171.37289637 -18.20011337 -193.38532072 -3.90748865 -213.6015625 14.8671875 C-214.50841797 15.69283203 -214.50841797 15.69283203 -215.43359375 16.53515625 C-233.61735604 33.78205022 -245.86645838 57.9904838 -252.6015625 81.8671875 C-252.81329102 82.58696777 -253.02501953 83.30674805 -253.24316406 84.04833984 C-256.57358618 95.79982136 -256.99067555 107.48664296 -257.0390625 119.6171875 C-257.04532654 120.35218475 -257.05159058 121.08718201 -257.05804443 121.8444519 C-257.13427383 135.99408867 -255.03787998 149.32288023 -250.8515625 162.8671875 C-250.59552246 163.70330566 -250.33948242 164.53942383 -250.07568359 165.40087891 C-241.6332995 192.16308383 -225.77505482 217.32696223 -203.6015625 234.8671875 C-202.85060303 235.46200928 -202.85060303 235.46200928 -202.08447266 236.06884766 C-170.10435928 261.12380441 -130.79862096 272.87779616 -90.20507812 268.50097656 C-56.84604633 263.80650778 -27.71247098 249.1169921 -3.6015625 225.8671875 C-2.82296875 225.15175781 -2.044375 224.43632812 -1.2421875 223.69921875 C24.04008214 199.8065774 39.4681501 161.94158158 40.46484375 127.57763672 C41.45893858 84.70729738 27.24119028 46.74916568 -2.1730957 15.31713867 C-6.94950648 10.36022174 -12.08554944 5.98703128 -17.6015625 1.8671875 C-18.58511719 1.12984375 -19.56867188 0.3925 -20.58203125 -0.3671875 C-45.37541863 -18.23074611 -75.11949111 -28.2940402 -105.70166016 -28.37304688 C-107.93561743 -28.38263673 -110.16860637 -28.41364933 -112.40234375 -28.4453125 C-122.47016584 -28.51962019 -131.79105747 -27.35904776 -141.6015625 -25.1328125 Z " fill="#5D6D7E" transform="translate(302.6015625,74.1328125)"/>
<path d="M0 0 C0.92522461 0.4328833 0.92522461 0.4328833 1.86914062 0.87451172 C13.91316492 6.60813708 29.03384583 15.18017163 36 27 C36.85474881 31.50685737 36.38378845 33.29859353 34.1875 37.3125 C32.08720054 39.89286791 30.52670178 41.76145285 27.125 42.29296875 C20.39301635 41.95884456 16.95696306 38.88126536 12.01171875 34.54296875 C-9.63039406 16.26927817 -34.13256651 11.20564094 -61.79296875 13.28515625 C-79.72811894 15.53524208 -95.1313455 24.20349031 -108.90625 35.44921875 C-109.43283203 35.87904053 -109.95941406 36.3088623 -110.50195312 36.75170898 C-111.89965285 37.91638283 -113.26386165 39.12092491 -114.625 40.328125 C-117.99227128 42.69850675 -119.93034076 42.31364548 -123.84375 41.6875 C-127.16275683 40.62926594 -128.89477454 38.69732012 -131 36 C-132.66130358 32.67739283 -132.52934163 30.70539144 -132 27 C-120.20710515 8.27010817 -93.57222065 -3.25487517 -72.9140625 -7.9609375 C-48.26807687 -13.05333822 -22.78391798 -10.72038062 0 0 Z " fill="#FDFDFD" transform="translate(245,107)"/>
<path d="M0 0 C5.80891746 4.81867247 11.13065552 10.01256408 16.4375 15.375 C17.26443359 16.20644531 18.09136719 17.03789062 18.94335938 17.89453125 C20.96455531 19.9274104 22.98336335 21.96259963 25 24 C19.68985746 30.44690639 13.82873116 36.29949437 7.9140625 42.18359375 C6.84624655 43.24954109 5.77865378 44.31571205 4.71127319 45.38209534 C1.92207682 48.16750139 -0.870111 50.94988929 -3.66296387 53.73162842 C-6.52063575 56.57901064 -9.37542502 59.42927986 -12.23046875 62.27929688 C-17.81751842 67.85567081 -23.40773634 73.42885494 -29 79 C-33.01291728 75.61833266 -36.92096585 72.20369863 -40.62109375 68.4765625 C-41.80541992 67.28740234 -41.80541992 67.28740234 -43.01367188 66.07421875 C-44.2134668 64.86185547 -44.2134668 64.86185547 -45.4375 63.625 C-46.67790039 62.37783203 -46.67790039 62.37783203 -47.94335938 61.10546875 C-49.96455531 59.0725896 -51.98336335 57.03740037 -54 55 C-50.41866658 51.26498996 -46.62362651 48.06531028 -42.5 44.9375 C-25.76598908 31.99064831 -12.65402388 16.88575532 0 0 Z " fill="#5C6C7D" transform="translate(356,302)"/>
<path d="M0 0 C2.79570164 1.34727261 4.83967803 2.59706233 7.015625 4.8203125 C7.54414063 5.35527344 8.07265625 5.89023437 8.6171875 6.44140625 C9.15601563 6.99699219 9.69484375 7.55257813 10.25 8.125 C11.08144531 8.96998047 11.08144531 8.96998047 11.9296875 9.83203125 C13.29104485 11.21686028 14.64614859 12.60783204 16 14 C14.42122567 17.8239492 12.00498287 20.23642099 9.09130859 23.13574219 C8.34472237 23.88276649 8.34472237 23.88276649 7.58305359 24.6448822 C5.9428793 26.28366733 4.29574339 27.91526134 2.6484375 29.546875 C1.50742744 30.68415347 0.36685923 31.8218754 -0.77328491 32.96002197 C-3.77078762 35.94989979 -6.77424851 38.93372191 -9.7789917 41.9163208 C-12.84586712 44.96271321 -15.90706694 48.01479703 -18.96875 51.06640625 C-24.97362783 57.04985434 -30.98481232 63.02691663 -37 69 C-39.79570164 67.65272739 -41.83967803 66.40293767 -44.015625 64.1796875 C-44.54414063 63.64472656 -45.07265625 63.10976563 -45.6171875 62.55859375 C-46.15601563 62.00300781 -46.69484375 61.44742188 -47.25 60.875 C-47.80429687 60.31167969 -48.35859375 59.74835938 -48.9296875 59.16796875 C-50.29104485 57.78313972 -51.64614859 56.39216796 -53 55 C-51.42122567 51.1760508 -49.00498287 48.76357901 -46.09130859 45.86425781 C-45.59358444 45.36624161 -45.09586029 44.8682254 -44.58305359 44.3551178 C-42.9428793 42.71633267 -41.29574339 41.08473866 -39.6484375 39.453125 C-38.50742744 38.31584653 -37.36685923 37.1781246 -36.22671509 36.03997803 C-33.22921238 33.05010021 -30.22575149 30.06627809 -27.2210083 27.0836792 C-24.15413288 24.03728679 -21.09293306 20.98520297 -18.03125 17.93359375 C-12.02637217 11.95014566 -6.01518768 5.97308337 0 0 Z " fill="#F77634" transform="translate(380,327)"/>
</svg>
