<?xml version="1.0" encoding="UTF-8"?>
<svg version="1.1" xmlns="http://www.w3.org/2000/svg" width="512" height="512">
<path d="M0 0 C0.84390289 0.00304138 1.68780579 0.00608276 2.55728149 0.00921631 C16.60445984 0.08368623 30.12672612 1.06005391 43.8125 4.4375 C44.66714844 4.64648926 45.52179688 4.85547852 46.40234375 5.07080078 C95.52158376 17.54686345 136.31707187 49.78649402 162.125 93 C176.34701067 117.47872483 185.85489318 146.63421237 186.015625 175.08203125 C186.02132507 175.89129562 186.02702515 176.70056 186.03289795 177.53434753 C186.04229274 179.24285602 186.04885979 180.95138218 186.05273438 182.65991211 C186.06233132 185.20526203 186.09336164 187.74976449 186.125 190.29492188 C186.22095017 205.12272644 184.50804369 219.67503467 180.5625 234 C180.35343018 234.77190674 180.14436035 235.54381348 179.92895508 236.33911133 C170.23489988 270.84854545 149.90533952 304.78517517 121.8125 327.4375 C120.34296875 328.66339844 120.34296875 328.66339844 118.84375 329.9140625 C85.3999723 357.39259243 43.84811998 371.97034552 0.6875 371.75 C-0.07685364 371.74784485 -0.84120728 371.7456897 -1.62872314 371.74346924 C-21.7629499 371.65271072 -40.01491944 368.6578673 -59.1875 362.4375 C-59.88117676 362.21755371 -60.57485352 361.99760742 -61.28955078 361.77099609 C-78.54558957 356.1991357 -95.14129987 347.37282883 -109.54296875 336.3984375 C-112.29543912 334.23893636 -112.29543912 334.23893636 -116.1875 332.4375 C-125.0975 341.3475 -134.0075 350.2575 -143.1875 359.4375 C-141.44368453 362.92513093 -139.65943291 365.47118051 -137.1875 368.4375 C-155.10250439 386.49280385 -173.03477029 404.53080504 -190.98761463 422.54848766 C-199.32344893 430.91523066 -207.6535904 439.28749626 -215.97045898 447.6730957 C-223.2213246 454.9838539 -230.48275408 462.2839249 -237.75694579 469.57147676 C-241.60652504 473.42886285 -245.45068781 477.29131268 -249.2822361 481.16661644 C-252.8929907 484.81826691 -256.51776611 488.45540041 -260.15351486 492.08216095 C-261.48131911 493.4116082 -262.80403746 494.74615891 -264.12105751 496.08629036 C-279.68154265 511.90619836 -279.68154265 511.90619836 -291.4453125 513.06640625 C-302.74605398 512.87235311 -310.05502499 511.07183057 -318.46484375 503.23046875 C-325.22355682 496.19588984 -326.60140806 488.89004616 -326.55102539 479.48242188 C-326.13982917 463.56090426 -312.69623768 453.8009221 -302.18383789 443.3203125 C-300.87226223 442.00901932 -299.56090753 440.69750509 -298.24975586 439.38578796 C-294.70912991 435.8448764 -291.16544044 432.30704547 -287.62117314 428.76977921 C-283.91048087 425.0653598 -280.20264102 421.35808753 -276.49449158 417.65112305 C-269.48082707 410.64056029 -262.46461848 403.63254945 -255.44748157 396.62546253 C-247.45516264 388.64434071 -239.46570031 380.66036191 -231.47647107 372.67614746 C-215.04998005 356.26009463 -198.61992311 339.84761467 -182.1875 323.4375 C-179.5475 325.4175 -176.9075 327.3975 -174.1875 329.4375 C-170.3080795 325.68148282 -166.4452266 321.90947568 -162.59692383 318.12158203 C-161.2849676 316.83480263 -159.96856348 315.55254214 -158.64770508 314.27490234 C-156.75200531 312.43971121 -154.8727906 310.58896937 -152.99609375 308.734375 C-152.10246376 307.87945465 -152.10246376 307.87945465 -151.19078064 307.00726318 C-149.35066062 305.22675756 -149.35066062 305.22675756 -147.1875 302.4375 C-147.66733643 298.35890574 -149.95500446 295.94120797 -152.4375 292.75 C-175.07616931 262.18925806 -185.66181844 223.6732917 -185.5625 186 C-185.56195618 185.21680389 -185.56141235 184.43360779 -185.56085205 183.62667847 C-185.51736489 169.92248206 -184.37986628 156.80462273 -181.1875 143.4375 C-180.97319336 142.53547852 -180.75888672 141.63345703 -180.53808594 140.70410156 C-173.32576191 111.38238248 -159.22522631 83.9498325 -138.48828125 61.890625 C-136.47942611 59.74875568 -134.57619907 57.55947688 -132.6875 55.3125 C-111.25342103 30.8518497 -78.82193178 14.10328781 -47.75 5.6875 C-47.07283936 5.50098877 -46.39567871 5.31447754 -45.69799805 5.12231445 C-30.62800887 1.27498816 -15.50876975 -0.11979453 0 0 Z " fill="#DEFCFE" transform="translate(326.1875,-0.4375)"/>
<path d="M0 0 C0.84390289 0.00304138 1.68780579 0.00608276 2.55728149 0.00921631 C16.60445984 0.08368623 30.12672612 1.06005391 43.8125 4.4375 C44.66714844 4.64648926 45.52179688 4.85547852 46.40234375 5.07080078 C95.52158376 17.54686345 136.31707187 49.78649402 162.125 93 C176.34701067 117.47872483 185.85489318 146.63421237 186.015625 175.08203125 C186.02132507 175.89129562 186.02702515 176.70056 186.03289795 177.53434753 C186.04229274 179.24285602 186.04885979 180.95138218 186.05273438 182.65991211 C186.06233132 185.20526203 186.09336164 187.74976449 186.125 190.29492188 C186.22095017 205.12272644 184.50804369 219.67503467 180.5625 234 C180.35343018 234.77190674 180.14436035 235.54381348 179.92895508 236.33911133 C170.23489988 270.84854545 149.90533952 304.78517517 121.8125 327.4375 C120.34296875 328.66339844 120.34296875 328.66339844 118.84375 329.9140625 C85.3999723 357.39259243 43.84811998 371.97034552 0.6875 371.75 C-0.07685364 371.74784485 -0.84120728 371.7456897 -1.62872314 371.74346924 C-21.7629499 371.65271072 -40.01491944 368.6578673 -59.1875 362.4375 C-59.88117676 362.21755371 -60.57485352 361.99760742 -61.28955078 361.77099609 C-78.54558957 356.1991357 -95.14129987 347.37282883 -109.54296875 336.3984375 C-112.29543912 334.23893636 -112.29543912 334.23893636 -116.1875 332.4375 C-125.0975 341.3475 -134.0075 350.2575 -143.1875 359.4375 C-141.44368453 362.92513093 -139.65943291 365.47118051 -137.1875 368.4375 C-155.10250439 386.49280385 -173.03477029 404.53080504 -190.98761463 422.54848766 C-199.32344893 430.91523066 -207.6535904 439.28749626 -215.97045898 447.6730957 C-223.2213246 454.9838539 -230.48275408 462.2839249 -237.75694579 469.57147676 C-241.60652504 473.42886285 -245.45068781 477.29131268 -249.2822361 481.16661644 C-252.8929907 484.81826691 -256.51776611 488.45540041 -260.15351486 492.08216095 C-261.48131911 493.4116082 -262.80403746 494.74615891 -264.12105751 496.08629036 C-279.68154265 511.90619836 -279.68154265 511.90619836 -291.4453125 513.06640625 C-302.74605398 512.87235311 -310.05502499 511.07183057 -318.46484375 503.23046875 C-325.22355682 496.19588984 -326.60140806 488.89004616 -326.55102539 479.48242188 C-326.13982917 463.56090426 -312.69623768 453.8009221 -302.18383789 443.3203125 C-300.87226223 442.00901932 -299.56090753 440.69750509 -298.24975586 439.38578796 C-294.70912991 435.8448764 -291.16544044 432.30704547 -287.62117314 428.76977921 C-283.91048087 425.0653598 -280.20264102 421.35808753 -276.49449158 417.65112305 C-269.48082707 410.64056029 -262.46461848 403.63254945 -255.44748157 396.62546253 C-247.45516264 388.64434071 -239.46570031 380.66036191 -231.47647107 372.67614746 C-215.04998005 356.26009463 -198.61992311 339.84761467 -182.1875 323.4375 C-179.5475 325.4175 -176.9075 327.3975 -174.1875 329.4375 C-170.3080795 325.68148282 -166.4452266 321.90947568 -162.59692383 318.12158203 C-161.2849676 316.83480263 -159.96856348 315.55254214 -158.64770508 314.27490234 C-156.75200531 312.43971121 -154.8727906 310.58896937 -152.99609375 308.734375 C-152.10246376 307.87945465 -152.10246376 307.87945465 -151.19078064 307.00726318 C-149.35066062 305.22675756 -149.35066062 305.22675756 -147.1875 302.4375 C-147.66733643 298.35890574 -149.95500446 295.94120797 -152.4375 292.75 C-175.07616931 262.18925806 -185.66181844 223.6732917 -185.5625 186 C-185.56195618 185.21680389 -185.56141235 184.43360779 -185.56085205 183.62667847 C-185.51736489 169.92248206 -184.37986628 156.80462273 -181.1875 143.4375 C-180.97319336 142.53547852 -180.75888672 141.63345703 -180.53808594 140.70410156 C-173.32576191 111.38238248 -159.22522631 83.9498325 -138.48828125 61.890625 C-136.47942611 59.74875568 -134.57619907 57.55947688 -132.6875 55.3125 C-111.25342103 30.8518497 -78.82193178 14.10328781 -47.75 5.6875 C-47.07283936 5.50098877 -46.39567871 5.31447754 -45.69799805 5.12231445 C-30.62800887 1.27498816 -15.50876975 -0.11979453 0 0 Z M-43.1875 37.4375 C-44.20199219 37.71207031 -45.21648437 37.98664062 -46.26171875 38.26953125 C-60.40541077 42.15594098 -74.23825646 48.9550123 -86.1875 57.4375 C-87.62609375 58.45070313 -87.62609375 58.45070313 -89.09375 59.484375 C-123.29730812 84.34366208 -146.42316506 121.08982647 -153.36279297 162.93774414 C-156.76737581 187.43571278 -154.05002806 212.11424974 -146.1875 235.4375 C-145.97254883 236.09669434 -145.75759766 236.75588867 -145.53613281 237.43505859 C-138.47959819 258.85253776 -125.97710265 276.65108156 -111.1875 293.4375 C-110.25550781 294.49904297 -110.25550781 294.49904297 -109.3046875 295.58203125 C-90.40084113 315.71505149 -63.6073265 329.40219209 -37.1875 336.4375 C-36.46304688 336.63859375 -35.73859375 336.8396875 -34.9921875 337.046875 C-9.79238603 343.37077955 19.1309014 342.40046831 43.8125 334.4375 C44.93269531 334.10105469 46.05289063 333.76460938 47.20703125 333.41796875 C71.53080093 325.8024639 91.20378683 312.71927607 109.8125 295.4375 C110.41707031 294.88707031 111.02164062 294.33664062 111.64453125 293.76953125 C137.35907576 269.37985789 153.75178352 230.56655739 155.12109375 195.453125 C155.24063939 189.43760757 155.08781269 183.44680676 154.8125 177.4375 C154.77382813 176.53112793 154.73515625 175.62475586 154.6953125 174.69091797 C152.8410444 137.50329861 136.09477055 104.20167984 110.8125 77.4375 C110.11769531 76.68984375 109.42289062 75.9421875 108.70703125 75.171875 C87.36044603 52.9309884 57.79230441 39.26369108 27.8125 33.4375 C26.38744141 33.13005859 26.38744141 33.13005859 24.93359375 32.81640625 C3.09339006 28.68755418 -22.13654175 30.45512297 -43.1875 37.4375 Z " fill="#2D4853" transform="translate(326.1875,-0.4375)"/>
<path d="M0 0 C3.65750289 1.82875144 4.93598232 2.76897662 7.4375 5.75 C8.0459375 6.46542969 8.654375 7.18085938 9.28125 7.91796875 C10.68471391 9.61807389 12.06462181 11.33760177 13.4375 13.0625 C16.66478171 16.76206684 20.25377706 19.84044971 24 23 C25.33391633 24.14515459 26.66729197 25.29093945 28 26.4375 C28.99 27.283125 29.98 28.12875 31 29 C25.61359076 35.55377097 19.64114873 41.47246635 13.625 47.4375 C12.59221405 48.46525983 11.55966009 49.49325285 10.52734375 50.52148438 C8.02089713 53.01701598 5.5113292 55.50938082 3 58 C4.5292743 61.44086718 6.62762929 64.09239931 9 67 C-8.91500439 85.05530385 -26.84727029 103.09330504 -44.80011463 121.11098766 C-53.13594893 129.47773066 -61.4660904 137.84999626 -69.78295898 146.2355957 C-77.0338246 153.5463539 -84.29525408 160.8464249 -91.56944579 168.13397676 C-95.41902504 171.99136285 -99.26318781 175.85381268 -103.0947361 179.72911644 C-106.7054907 183.38076691 -110.33026611 187.01790041 -113.96601486 190.64466095 C-115.29381911 191.9741082 -116.61653746 193.30865891 -117.93355751 194.64879036 C-133.49404265 210.46869836 -133.49404265 210.46869836 -145.2578125 211.62890625 C-156.55855398 211.43485311 -163.86752499 209.63433057 -172.27734375 201.79296875 C-179.03605682 194.75838984 -180.41390806 187.45254616 -180.36352539 178.04492188 C-179.95232917 162.12340426 -166.50873768 152.3634221 -155.99633789 141.8828125 C-154.68476223 140.57151932 -153.37340753 139.26000509 -152.06225586 137.94828796 C-148.52162991 134.4073764 -144.97794044 130.86954547 -141.43367314 127.33227921 C-137.72298087 123.6278598 -134.01514102 119.92058753 -130.30699158 116.21362305 C-123.29332707 109.20306029 -116.27711848 102.19504945 -109.25998157 95.18796253 C-101.26766264 87.20684071 -93.27820031 79.22286191 -85.28897107 71.23864746 C-68.86248005 54.82259463 -52.43242311 38.41011467 -36 22 C-33.36 23.98 -30.72 25.96 -28 28 C-14.14 14.14 -14.14 14.14 0 0 Z " fill="#436774" transform="translate(180,301)"/>
<path d="M0 0 C4.47783606 3.7420414 6.74676617 8.65434292 9.375 13.75 C10.10517334 15.16454468 10.10517334 15.16454468 10.85009766 16.60766602 C20.15149516 34.92940043 26.66921949 55.12219193 26.96484375 75.84228516 C26.99076888 77.43343985 27.03519601 79.02431879 27.08984375 80.61474609 C28.20242968 113.26358021 19.98896157 146.03486481 1 173 C0.32324219 173.96164062 -0.35351562 174.92328125 -1.05078125 175.9140625 C-25.62073253 209.69229037 -61.0217004 232.03934564 -102.18359375 239.421875 C-139.9085662 245.13660982 -178.83867274 237.96792415 -211 217 C-213.4375 214.734375 -213.4375 214.734375 -215 213 C-211.23180369 213.60995983 -208.1820604 214.71918139 -204.75 216.375 C-171.58304241 231.66255131 -134.24086208 226.2570018 -101.06787109 214.17431641 C-94.41578748 211.62803898 -88.17670879 208.53099323 -82 205 C-81.3723877 204.64969727 -80.74477539 204.29939453 -80.09814453 203.93847656 C-66.56299352 196.34733367 -54.68754058 187.12517273 -43.48388672 176.41650391 C-42.49582225 175.47330712 -41.50264107 174.5354411 -40.50439453 173.60302734 C-17.72053112 152.28717726 -3.0006995 124.60515238 6.1875 95.0625 C6.56285889 93.88349121 6.56285889 93.88349121 6.94580078 92.68066406 C10.60709531 80.53576144 11.44168882 68.12699807 11.4375 55.5 C11.4385675 54.80811584 11.43963501 54.11623169 11.44073486 53.40338135 C11.40328948 36.46785374 8.48932474 20.89841704 1.13671875 5.58203125 C0 3 0 3 0 0 Z " fill="#A9F2F7" transform="translate(454,99)"/>
<path d="M0 0 C3.7654902 1.8827451 5.64643414 3.41192649 8.546875 6.3515625 C9.39121094 7.20234375 10.23554688 8.053125 11.10546875 8.9296875 C11.97816406 9.81914062 12.85085937 10.70859375 13.75 11.625 C14.63816406 12.5221875 15.52632812 13.419375 16.44140625 14.34375 C18.63216969 16.55807004 20.81812763 18.77692435 23 21 C17.77731168 27.3134928 12.07777497 33.09803121 6.30395508 38.90478516 C5.22717157 39.99112466 4.15055673 41.07763137 3.07409668 42.16429138 C-0.44020139 45.70975418 -3.95986092 49.24986656 -7.48046875 52.7890625 C-8.08144953 53.3933406 -8.68243031 53.9976187 -9.30162263 54.62020826 C-14.97832296 60.32766362 -20.65706338 66.03308184 -26.34066296 71.73366737 C-33.58384016 78.99875605 -40.81677266 86.27371984 -48.03608435 93.56252635 C-53.12897549 98.70275692 -58.23340203 103.83135264 -63.34639055 108.95159185 C-66.39304305 112.00318229 -69.43450203 115.05954774 -72.46361351 118.12855911 C-75.3143097 121.01631455 -78.17913154 123.88928994 -81.05501556 126.75195503 C-82.1022284 127.79922148 -83.14440411 128.85155559 -84.18081856 129.90950966 C-91.26203324 137.12984011 -98.76472831 143.64227044 -109.2578125 144.62890625 C-120.54969406 144.43500525 -126.8245673 143.1754327 -135 135 C-90.45 90.45 -45.9 45.9 0 0 Z " fill="#2D4853" transform="translate(144,368)"/>
<path d="M0 0 C3.65750289 1.82875144 4.93598232 2.76897662 7.4375 5.75 C8.0459375 6.46542969 8.654375 7.18085938 9.28125 7.91796875 C10.68471391 9.61807389 12.06462181 11.33760177 13.4375 13.0625 C16.66478171 16.76206684 20.25377706 19.84044971 24 23 C25.33391633 24.14515459 26.66729197 25.29093945 28 26.4375 C28.99 27.283125 29.98 28.12875 31 29 C25.61359076 35.55377097 19.64114873 41.47246635 13.625 47.4375 C12.59221405 48.46525983 11.55966009 49.49325285 10.52734375 50.52148438 C8.02089713 53.01701598 5.5113292 55.50938082 3 58 C4.61695475 61.63814819 6.35438887 63.69298608 9 67 C2.07 73.93 -4.86 80.86 -12 88 C-15.64142014 86.17928993 -17.42108952 84.82322474 -20.21777344 82.00927734 C-21.03832214 81.18857758 -21.85887085 80.36787781 -22.70428467 79.52230835 C-23.58046448 78.63580597 -24.45664429 77.74930359 -25.359375 76.8359375 C-26.26375305 75.92872955 -27.1681311 75.02152161 -28.09991455 74.08682251 C-30.49796458 71.68115581 -32.88994618 69.26954264 -35.28070068 66.85662842 C-37.72385171 64.39297656 -40.17271206 61.93501423 -42.62109375 59.4765625 C-47.41933788 54.65626427 -52.21182732 49.83030157 -57 45 C-55.3413812 41.47655356 -53.43342692 39.20098122 -50.6484375 36.453125 C-49.79765625 35.60878906 -48.946875 34.76445312 -48.0703125 33.89453125 C-47.18085938 33.02183594 -46.29140625 32.14914062 -45.375 31.25 C-44.4778125 30.36183594 -43.580625 29.47367187 -42.65625 28.55859375 C-40.44192996 26.36783031 -38.22307565 24.18187237 -36 22 C-33.36 23.98 -30.72 25.96 -28 28 C-18.76 18.76 -9.52 9.52 0 0 Z " fill="#BBE1E7" transform="translate(180,301)"/>
<path d="M0 0 C3.23910003 1.5273329 5.12420831 2.99328289 7.4375 5.75 C8.35015625 6.82314453 8.35015625 6.82314453 9.28125 7.91796875 C10.68471391 9.61807389 12.06462181 11.33760177 13.4375 13.0625 C16.66478171 16.76206684 20.25377706 19.84044971 24 23 C25.33391633 24.14515459 26.66729197 25.29093945 28 26.4375 C28.99 27.283125 29.98 28.12875 31 29 C25.47349666 35.74080425 19.30550441 41.8071129 13.125 47.9375 C12.04403726 49.01343727 10.96330617 50.08960731 9.8828125 51.16601562 C7.25787359 53.78003292 4.62981372 56.39088596 2 59 C-1.96270089 57.17236588 -4.71694538 54.58081926 -7.75 51.5 C-8.25660156 51.00113281 -8.76320312 50.50226563 -9.28515625 49.98828125 C-13 46.25341139 -13 46.25341139 -13 44 C-13.81017578 43.67128906 -13.81017578 43.67128906 -14.63671875 43.3359375 C-17.80340179 41.5458456 -20.24526293 39.16219138 -22.8125 36.625 C-23.32748047 36.14289063 -23.84246094 35.66078125 -24.37304688 35.1640625 C-25.83203125 33.7265625 -25.83203125 33.7265625 -28 31 C-27.52596127 26.34826951 -24.18261301 23.80536511 -20.99609375 20.703125 C-20.39821548 20.10949158 -19.80033722 19.51585815 -19.18434143 18.90423584 C-17.27565898 17.01232805 -15.3568046 15.13112501 -13.4375 13.25 C-12.14059164 11.96813998 -10.84435922 10.6855957 -9.54882812 9.40234375 C-6.37367043 6.26023928 -3.18935054 3.12769461 0 0 Z " fill="#97C4CF" transform="translate(180,301)"/>
<path d="M0 0 C4.13431111 3.43482838 8.00287045 6.89276439 11.5625 10.9375 C12.26503906 11.73027344 12.96757812 12.52304687 13.69140625 13.33984375 C16.47520404 16.54757014 19.23593353 19.77525578 22 23 C15.07 29.93 8.14 36.86 1 44 C-6.875 37.25 -6.875 37.25 -9.96484375 34.1328125 C-10.61904297 33.47539062 -11.27324219 32.81796875 -11.94726562 32.140625 C-12.60404297 31.47546875 -13.26082031 30.8103125 -13.9375 30.125 C-14.96327148 29.09246094 -14.96327148 29.09246094 -16.00976562 28.0390625 C-17.67551464 26.36166489 -19.3388622 24.68196209 -21 23 C-19.48623919 19.43235715 -17.39486871 17.16293713 -14.6484375 14.453125 C-13.79765625 13.60878906 -12.946875 12.76445312 -12.0703125 11.89453125 C-11.18085938 11.02183594 -10.29140625 10.14914062 -9.375 9.25 C-8.4778125 8.36183594 -7.580625 7.47367187 -6.65625 6.55859375 C-4.44192996 4.36783031 -2.22307565 2.18187237 0 0 Z " fill="#DEFCFE" transform="translate(144,323)"/>
</svg>
