<?xml version="1.0" encoding="UTF-8"?>
<svg version="1.1" xmlns="http://www.w3.org/2000/svg" width="512" height="512">
<path d="M0 0 C1.45108658 0.00273422 1.45108658 0.00273422 2.93148804 0.00552368 C17.26440977 0.05095174 31.21023917 0.55983928 45.3125 3.3125 C46.65803955 3.55395752 46.65803955 3.55395752 48.03076172 3.80029297 C107.84088904 14.62287989 165.35495829 48.68064457 202.3125 97.3125 C202.72918945 97.85277832 203.14587891 98.39305664 203.57519531 98.94970703 C211.2584873 108.9447116 218.00092968 119.40459036 224.3125 130.3125 C224.70679199 130.98974121 225.10108398 131.66698242 225.50732422 132.36474609 C238.68961173 155.2833756 247.29510918 180.85822563 252.625 206.6875 C252.77243652 207.39817627 252.91987305 208.10885254 253.07177734 208.84106445 C256.05713787 224.48358366 256.6873098 240.11919606 256.625 256 C256.62226578 257.45108658 256.62226578 257.45108658 256.61947632 258.93148804 C256.57404826 273.26440977 256.06516072 287.21023917 253.3125 301.3125 C253.15152832 302.20952637 252.99055664 303.10655273 252.82470703 304.03076172 C242.00212011 363.84088904 207.94435543 421.35495829 159.3125 458.3125 C158.77222168 458.72918945 158.23194336 459.14587891 157.67529297 459.57519531 C147.6802884 467.2584873 137.22040964 474.00092968 126.3125 480.3125 C125.63525879 480.70679199 124.95801758 481.10108398 124.26025391 481.50732422 C101.3416244 494.68961173 75.76677437 503.29510918 49.9375 508.625 C49.22682373 508.77243652 48.51614746 508.91987305 47.78393555 509.07177734 C32.14141634 512.05713787 16.50580394 512.6873098 0.625 512.625 C-0.34239105 512.62317719 -1.3097821 512.62135437 -2.30648804 512.61947632 C-16.63940977 512.57404826 -30.58523917 512.06516072 -44.6875 509.3125 C-45.58452637 509.15152832 -46.48155273 508.99055664 -47.40576172 508.82470703 C-107.21588904 498.00212011 -164.72995829 463.94435543 -201.6875 415.3125 C-202.10418945 414.77222168 -202.52087891 414.23194336 -202.95019531 413.67529297 C-210.6334873 403.6802884 -217.37592968 393.22040964 -223.6875 382.3125 C-224.08179199 381.63525879 -224.47608398 380.95801758 -224.88232422 380.26025391 C-238.06461173 357.3416244 -246.67010918 331.76677437 -252 305.9375 C-252.14743652 305.22682373 -252.29487305 304.51614746 -252.44677734 303.78393555 C-255.43213787 288.14141634 -256.0623098 272.50580394 -256 256.625 C-255.99817719 255.65760895 -255.99635437 254.6902179 -255.99447632 253.69351196 C-255.94904826 239.36059023 -255.44016072 225.41476083 -252.6875 211.3125 C-252.44604248 209.96696045 -252.44604248 209.96696045 -252.19970703 208.59423828 C-241.37712011 148.78411096 -207.31935543 91.27004171 -158.6875 54.3125 C-158.14722168 53.89581055 -157.60694336 53.47912109 -157.05029297 53.04980469 C-147.0552884 45.3665127 -136.59540964 38.62407032 -125.6875 32.3125 C-125.01025879 31.91820801 -124.33301758 31.52391602 -123.63525391 31.11767578 C-100.7166244 17.93538827 -75.14177437 9.32989082 -49.3125 4 C-48.60182373 3.85256348 -47.89114746 3.70512695 -47.15893555 3.55322266 C-31.51641634 0.56786213 -15.88080394 -0.0623098 0 0 Z " fill="#FEC928" transform="translate(255.6875,-0.3125)"/>
<path d="M0 0 C1.06089844 0.48339844 2.12179687 0.96679688 3.21484375 1.46484375 C14.8888655 7.00271741 25.12476466 14.73236111 35 23 C35.81726563 23.6703125 36.63453125 24.340625 37.4765625 25.03125 C43.40451529 30.05166605 47.42319349 33.96235442 48.5625 41.9375 C48.21501353 48.10838045 44.68807157 52.42970087 40.3125 56.5 C35.70300954 58.58731643 31.97252839 58.97337809 27 58 C21.60061847 55.56245979 17.43987474 51.53708494 13.125 47.5625 C-11.09052877 25.35255183 -45.94180519 16.86071719 -78.03515625 17.71484375 C-85.51833742 18.06031029 -92.72526595 19.24854744 -100 21 C-101.04317383 21.24943359 -101.04317383 21.24943359 -102.10742188 21.50390625 C-123.99609941 26.93085109 -142.61965951 37.80767956 -159.3125 52.875 C-164.26132916 57.20276095 -168.22969386 58.50060615 -174.79296875 58.3046875 C-179.15993576 57.70181418 -181.71107295 55.54125669 -184.4765625 52.234375 C-187.24736206 48.3026259 -188.85284419 44.8563881 -188.46484375 39.9921875 C-184.99508663 25.12179986 -164.98592256 14.36949128 -152.99511719 6.72119141 C-106.38036496 -22.14617277 -48.96968394 -22.85251917 0 0 Z " fill="#6E4D40" transform="translate(326,336)"/>
<path d="M0 0 C4.42537821 2.87550655 7.9041146 5.6396448 10.80859375 10.078125 C11.29714844 10.80773437 11.78570312 11.53734375 12.2890625 12.2890625 C16.23344668 19.43753588 16.60437038 26.70976408 15.62109375 34.703125 C12.70352203 42.95379047 8.40535388 50.45269506 0.68359375 54.890625 C-0.56744141 55.62345703 -0.56744141 55.62345703 -1.84375 56.37109375 C-9.48993976 60.38858328 -17.54736225 61.22590207 -26.01171875 59.015625 C-28.27687551 58.06852113 -30.29211646 56.99475504 -32.37890625 55.703125 C-33.42498047 55.084375 -33.42498047 55.084375 -34.4921875 54.453125 C-41.48521654 49.81744473 -45.78127806 42.60227617 -48.37890625 34.703125 C-49.25523277 26.26593475 -48.89898033 18.9831197 -44.37890625 11.703125 C-43.95480469 11.00574219 -43.53070313 10.30835938 -43.09375 9.58984375 C-33.08957598 -5.20741644 -15.32873184 -8.4191093 0 0 Z " fill="#6E4D40" transform="translate(368.37890625,164.296875)"/>
<path d="M0 0 C4.42537821 2.87550655 7.9041146 5.6396448 10.80859375 10.078125 C11.29714844 10.80773437 11.78570312 11.53734375 12.2890625 12.2890625 C16.23344668 19.43753588 16.60437038 26.70976408 15.62109375 34.703125 C12.70352203 42.95379047 8.40535388 50.45269506 0.68359375 54.890625 C-0.56744141 55.62345703 -0.56744141 55.62345703 -1.84375 56.37109375 C-9.48993976 60.38858328 -17.54736225 61.22590207 -26.01171875 59.015625 C-28.27687551 58.06852113 -30.29211646 56.99475504 -32.37890625 55.703125 C-33.42498047 55.084375 -33.42498047 55.084375 -34.4921875 54.453125 C-41.48521654 49.81744473 -45.78127806 42.60227617 -48.37890625 34.703125 C-49.25523277 26.26593475 -48.89898033 18.9831197 -44.37890625 11.703125 C-43.95480469 11.00574219 -43.53070313 10.30835938 -43.09375 9.58984375 C-33.08957598 -5.20741644 -15.32873184 -8.4191093 0 0 Z " fill="#6E4D40" transform="translate(176.37890625,164.296875)"/>
</svg>
